<?xml version="1.0" encoding="utf-8" standalone="no"?><!DOCTYPE svg PUBLIC "-//W3C//DTD SVG 1.1//EN" "http://www.w3.org/Graphics/SVG/1.1/DTD/svg11.dtd">
<svg preserveAspectRatio="xMinYMin meet" width="100%" height="100%" viewBox="0 0 750.000 875.000"  version="1.1" xmlns="http://www.w3.org/2000/svg" xmlns:xlink="http://www.w3.org/1999/xlink">
  <desc>Matlab Figure Converted by PLOT2SVG written by Juerg Schwizer</desc>
  <g id="topgroup">
  <rect x="0" y="0" width="750.000" height="875.000" fill="#ffffff" stroke="none" />
  <g id ="ID000000">
  <clipPath id="ID000001">
    <rect x="97.500" y="65.625" width="581.250" height="713.125"/>
  </clipPath>
    <g>
<g id="ID000002" clip-path="url(#ID000001)" >
      <polyline fill="none" stroke="#000000" stroke-width="4.0pt" stroke-dasharray="none" stroke-opacity="1.00" points=","/>
      <polyline fill="none" stroke="#000000" stroke-width="4.0pt" stroke-dasharray="none" stroke-opacity="1.00" points=","/>
      <polyline fill="none" stroke="#000000" stroke-width="4.0pt" stroke-dasharray="none" stroke-opacity="1.00" points=","/>
      <polyline fill="none" stroke="#000000" stroke-width="4.0pt" stroke-dasharray="none" stroke-opacity="1.00" points="520.20957,203.53363 520.72985,203.86723 521.25014,204.20040 521.77043,204.53314 522.29072,204.86547 522.81100,205.19738 523.33129,205.52889 523.85158,205.86001 524.37186,206.19074 524.89215,206.52109 525.41244,206.85107 525.93273,207.18069 526.45301,207.50995 526.97330,207.83887 527.49359,208.16744 528.01388,208.49568 528.53416,208.82360 529.05445,209.15119 529.57474,209.47847 530.09502,209.80545 530.61531,210.13212 531.13560,210.45851 531.65589,210.78460 532.17617,211.11042 532.69646,211.43596 533.21675,211.76123 533.73703,212.08624 534.25732,212.41100 534.77761,212.73550 535.29790,213.05976 535.81818,213.38377 536.33847,213.70756 536.85876,214.03111 537.37905,214.35444 537.89933,214.67756 538.41962,215.00045 538.93991,215.32314 539.46019,215.64563 539.98048,215.96792 540.50077,216.29001 541.02106,216.61191 541.54134,216.93362 542.06163,217.25515 542.58192,217.57651 543.10220,217.89769 543.62249,218.21870 544.14278,218.53955 544.14278,218.53955 538.81528,224.44846 533.48778,230.36032 528.16028,236.27546 522.83279,242.19422 517.50529,248.11686 512.17779,254.04364 506.85029,259.97476 501.52279,265.91040 496.19530,271.85067 490.86780,277.79567 485.54030,283.74540 480.21280,289.69986 474.88530,295.65898 469.55780,301.62262 464.23031,307.59061 458.90281,313.56272 453.57531,319.53868 448.24781,325.51816 442.92031,331.50079 437.59282,337.48615 432.26532,343.47381 426.93782,349.46328 421.61032,355.45407 416.28282,361.44565 410.95532,367.43750 405.62783,373.42909 400.30033,379.41987 394.97283,385.40935 389.64533,391.39700 384.31783,397.38237 378.99034,403.36499 373.66284,409.34447 368.33534,415.32043 363.00784,421.29255 357.68034,427.26054 352.35284,433.22418 347.02535,439.18329 341.69785,445.13775 336.37035,451.08749 331.04285,457.03248 325.71535,462.97276 320.38786,468.90839 315.06036,474.83952 309.73286,480.76629 304.40536,486.68894 299.07786,492.60769 293.75036,498.52284 288.42287,504.43470 283.09537,510.34361 283.09537,510.34361 282.57508,510.03600 282.05479,509.72856 281.53451,509.42129 281.01422,509.11419 280.49393,508.80727 279.97365,508.50053 279.45336,508.19397 278.93307,507.88761 278.41278,507.58144 277.89250,507.27547 277.37221,506.96971 276.85192,506.66415 276.33163,506.35881 275.81135,506.05369 275.29106,505.74879 274.77077,505.44412 274.25049,505.13968 273.73020,504.83549 273.20991,504.53153 272.68962,504.22783 272.16934,503.92439 271.64905,503.62121 271.12876,503.31830 270.60848,503.01566 270.08819,502.71330 269.56790,502.41123 269.04761,502.10945 268.52733,501.80797 268.00704,501.50680 267.48675,501.20594 266.96646,500.90540 266.44618,500.60519 265.92589,500.30531 265.40560,500.00577 264.88532,499.70658 264.36503,499.40774 263.84474,499.10927 263.32445,498.81117 262.80417,498.51344 262.28388,498.21611 261.76359,497.91916 261.24331,497.62262 260.72302,497.32649 260.20273,497.03078 259.68244,496.73549 259.16216,496.44065 "/>
      <polyline fill="none" stroke="#000000" stroke-width="4.0pt" stroke-dasharray="none" stroke-opacity="1.00" points=","/>
      <polyline fill="none" stroke="#000000" stroke-width="4.0pt" stroke-dasharray="none" stroke-opacity="1.00" points=","/>
      <polyline fill="none" stroke="#000000" stroke-width="4.0pt" stroke-dasharray="none" stroke-opacity="1.00" points=","/>
      <polyline fill="none" stroke="#000000" stroke-width="4.0pt" stroke-dasharray="none" stroke-opacity="1.00" points=","/>
      <polyline fill="none" stroke="#000000" stroke-width="4.0pt" stroke-dasharray="none" stroke-opacity="1.00" points=","/>
      <polyline fill="none" stroke="#000000" stroke-width="4.0pt" stroke-dasharray="none" stroke-opacity="1.00" points=","/>
      <polyline fill="none" stroke="#000000" stroke-width="4.0pt" stroke-dasharray="none" stroke-opacity="1.00" points=","/>
      <polyline fill="none" stroke="#000000" stroke-width="4.0pt" stroke-dasharray="none" stroke-opacity="1.00" points=","/>
      <polyline fill="none" stroke="#000000" stroke-width="4.0pt" stroke-dasharray="none" stroke-opacity="1.00" points=","/>
      <polyline fill="none" stroke="#000000" stroke-width="4.0pt" stroke-dasharray="none" stroke-opacity="1.00" points=","/>
      <polyline fill="none" stroke="#000000" stroke-width="4.0pt" stroke-dasharray="none" stroke-opacity="1.00" points=","/>
      <polyline fill="none" stroke="#000000" stroke-width="4.0pt" stroke-dasharray="none" stroke-opacity="1.00" points=","/>
      <polyline fill="none" stroke="#000000" stroke-width="4.0pt" stroke-dasharray="none" stroke-opacity="1.00" points=","/>
      <polyline fill="none" stroke="#000000" stroke-width="4.0pt" stroke-dasharray="none" stroke-opacity="1.00" points=","/>
      <polyline fill="none" stroke="#000000" stroke-width="4.0pt" stroke-dasharray="none" stroke-opacity="1.00" points=","/>
      <polyline fill="none" stroke="#000000" stroke-width="4.0pt" stroke-dasharray="none" stroke-opacity="1.00" points=","/>
      <polyline fill="none" stroke="#000000" stroke-width="4.0pt" stroke-dasharray="none" stroke-opacity="1.00" points=","/>
      <polyline fill="none" stroke="#000000" stroke-width="4.0pt" stroke-dasharray="none" stroke-opacity="1.00" points=","/>
      <polyline fill="none" stroke="#000000" stroke-width="4.0pt" stroke-dasharray="none" stroke-opacity="1.00" points=","/>
      <polyline fill="none" stroke="#000000" stroke-width="4.0pt" stroke-dasharray="none" stroke-opacity="1.00" points=","/>
      <polyline fill="none" stroke="#000000" stroke-width="4.0pt" stroke-dasharray="none" stroke-opacity="1.00" points=","/>
      <polyline fill="none" stroke="#000000" stroke-width="4.0pt" stroke-dasharray="none" stroke-opacity="1.00" points=","/>
      <polyline fill="none" stroke="#000000" stroke-width="4.0pt" stroke-dasharray="none" stroke-opacity="1.00" points=","/>
      <polyline fill="none" stroke="#000000" stroke-width="4.0pt" stroke-dasharray="none" stroke-opacity="1.00" points=","/>
      <polyline fill="none" stroke="#000000" stroke-width="4.0pt" stroke-dasharray="none" stroke-opacity="1.00" points=","/>
      <polyline fill="none" stroke="#000000" stroke-width="4.0pt" stroke-dasharray="none" stroke-opacity="1.00" points=","/>
      <polyline fill="none" stroke="#000000" stroke-width="4.0pt" stroke-dasharray="none" stroke-opacity="1.00" points=","/>
      <polyline fill="none" stroke="#000000" stroke-width="4.0pt" stroke-dasharray="none" stroke-opacity="1.00" points=","/>
      <polyline fill="none" stroke="#000000" stroke-width="4.0pt" stroke-dasharray="none" stroke-opacity="1.00" points=","/>
      <polyline fill="none" stroke="#000000" stroke-width="4.0pt" stroke-dasharray="none" stroke-opacity="1.00" points=","/>
      <polyline fill="none" stroke="#000000" stroke-width="4.0pt" stroke-dasharray="none" stroke-opacity="1.00" points=","/>
      <polyline fill="none" stroke="#000000" stroke-width="4.0pt" stroke-dasharray="none" stroke-opacity="1.00" points=","/>
      <polyline fill="none" stroke="#000000" stroke-width="4.0pt" stroke-dasharray="none" stroke-opacity="1.00" points=","/>
      <polyline fill="none" stroke="#000000" stroke-width="4.0pt" stroke-dasharray="none" stroke-opacity="1.00" points=","/>
      <polyline fill="none" stroke="#000000" stroke-width="4.0pt" stroke-dasharray="none" stroke-opacity="1.00" points=","/>
      <polyline fill="none" stroke="#000000" stroke-width="4.0pt" stroke-dasharray="none" stroke-opacity="1.00" points=","/>
      <polyline fill="none" stroke="#000000" stroke-width="4.0pt" stroke-dasharray="none" stroke-opacity="1.00" points=","/>
      <polyline fill="none" stroke="#000000" stroke-width="4.0pt" stroke-dasharray="none" stroke-opacity="1.00" points=","/>
      <polyline fill="none" stroke="#000000" stroke-width="4.0pt" stroke-dasharray="none" stroke-opacity="1.00" points=","/>
      <polyline fill="none" stroke="#000000" stroke-width="4.0pt" stroke-dasharray="none" stroke-opacity="1.00" points=","/>
      <polyline fill="none" stroke="#000000" stroke-width="4.0pt" stroke-dasharray="none" stroke-opacity="1.00" points=","/>
      <polyline fill="none" stroke="#000000" stroke-width="4.0pt" stroke-dasharray="none" stroke-opacity="1.00" points=","/>
      <polyline fill="none" stroke="#000000" stroke-width="4.0pt" stroke-dasharray="none" stroke-opacity="1.00" points=","/>
      <polyline fill="none" stroke="#000000" stroke-width="4.0pt" stroke-dasharray="none" stroke-opacity="1.00" points=","/>
      <polyline fill="none" stroke="#000000" stroke-width="4.0pt" stroke-dasharray="none" stroke-opacity="1.00" points=","/>
      <polyline fill="none" stroke="#000000" stroke-width="4.0pt" stroke-dasharray="none" stroke-opacity="1.00" points=","/>
      <polyline fill="none" stroke="#000000" stroke-width="4.0pt" stroke-dasharray="none" stroke-opacity="1.00" points=","/>
      <polyline fill="none" stroke="#000000" stroke-width="4.0pt" stroke-dasharray="none" stroke-opacity="1.00" points=","/>
      <polyline fill="none" stroke="#000000" stroke-width="4.0pt" stroke-dasharray="none" stroke-opacity="1.00" points=","/>
      <polyline fill="none" stroke="#000000" stroke-width="4.0pt" stroke-dasharray="none" stroke-opacity="1.00" points=","/>
      <polyline fill="none" stroke="#000000" stroke-width="4.0pt" stroke-dasharray="none" stroke-opacity="1.00" points=","/>
      <polyline fill="none" stroke="#000000" stroke-width="4.0pt" stroke-dasharray="none" stroke-opacity="1.00" points=","/>
      <polyline fill="none" stroke="#000000" stroke-width="4.0pt" stroke-dasharray="none" stroke-opacity="1.00" points=","/>
</g>
<g id="ID000003" clip-path="url(#ID000001)" >
      <polyline fill="none" stroke="#000000" stroke-width="4.0pt" stroke-dasharray="none" stroke-opacity="1.00" points=","/>
      <polyline fill="none" stroke="#000000" stroke-width="4.0pt" stroke-dasharray="none" stroke-opacity="1.00" points=","/>
      <polyline fill="none" stroke="#000000" stroke-width="4.0pt" stroke-dasharray="none" stroke-opacity="1.00" points="256.32659,494.84175 255.68924,494.48433 255.05189,494.12767 254.41454,493.77178 253.77718,493.41667 253.13983,493.06238 252.50248,492.70891 251.86513,492.35629 251.22778,492.00453 250.59042,491.65364 249.95307,491.30365 249.31572,490.95458 248.67837,490.60644 248.04102,490.25925 247.40367,489.91303 246.76631,489.56779 246.12896,489.22356 245.49161,488.88035 244.85426,488.53818 244.21691,488.19706 243.57955,487.85703 242.94220,487.51808 242.30485,487.18024 241.66750,486.84352 241.03015,486.50795 240.39280,486.17353 239.75544,485.84028 239.11809,485.50822 238.48074,485.17736 237.84339,484.84772 237.20604,484.51930 236.56868,484.19213 235.93133,483.86621 235.29398,483.54155 234.65663,483.21817 234.01928,482.89607 233.38192,482.57527 232.74457,482.25576 232.10722,481.93757 232.10722,481.93757 234.99355,478.93380 237.87989,475.92551 240.76622,472.91227 243.65255,469.89367 248.40958,464.90577 253.16661,459.90002 257.92364,454.87423 262.68067,449.82612 266.92370,445.30265 271.16673,440.75761 275.40976,436.18904 279.65279,431.59487 283.67489,427.21430 287.69698,422.80679 291.71908,418.37025 295.74118,413.90254 299.50452,409.69205 303.26786,405.45042 307.03120,401.17574 310.79454,396.86614 314.26705,392.85701 317.73957,388.81523 321.21209,384.73958 324.68461,380.62909 327.89742,376.79439 331.11022,372.92899 334.32303,369.03300 337.53583,365.10699 340.48918,361.47244 343.44253,357.81467 346.39588,354.13541 349.34924,350.43687 352.11279,346.96093 354.87634,343.47303 357.63989,339.97603 360.40345,336.47303 363.04522,333.12182 365.68699,329.77108 368.32876,326.42373 370.97053,323.08258 373.58284,319.78744 376.19514,316.50338 378.80744,313.23252 381.41974,309.97672 384.08768,306.66871 386.75563,303.37937 389.42357,300.10972 392.09151,296.86049 394.86924,293.49975 397.64698,290.16192 400.42471,286.84703 403.20244,283.55491 406.12538,280.11491 409.04831,276.69920 411.97124,273.30713 414.89418,269.93793 418.02552,266.35296 421.15686,262.79223 424.28820,259.25467 427.41954,255.73918 430.77959,251.99024 434.13963,248.26413 437.49968,244.55954 440.85972,240.87523 444.49684,236.90854 448.13395,232.96272 451.77107,229.03634 455.40819,225.12807 459.23630,221.03272 463.06442,216.95459 466.89254,212.89233 470.72066,208.84468 474.75747,204.59085 478.79428,200.35054 482.83109,196.12246 486.86790,191.90537 488.43958,190.26622 490.01126,188.62848 491.58295,186.99210 493.15463,185.35700 493.15463,185.35700 493.79198,185.80867 494.42934,186.25903 495.06669,186.70808 495.70404,187.15584 496.34139,187.60232 496.97874,188.04752 497.61609,188.49146 498.25345,188.93414 498.89080,189.37558 499.52815,189.81580 500.16550,190.25479 500.80285,190.69259 501.44021,191.12920 502.07756,191.56464 502.71491,191.99893 503.35226,192.43207 503.98961,192.86409 504.62696,193.29500 505.26432,193.72481 505.90167,194.15356 506.53902,194.58125 507.17637,195.00789 507.81372,195.43352 508.45108,195.85814 509.08843,196.28178 509.72578,196.70444 510.36313,197.12616 511.00048,197.54694 511.63783,197.96681 512.27519,198.38578 512.91254,198.80388 513.54989,199.22111 514.18724,199.63750 514.82459,200.05306 515.46195,200.46782 516.09930,200.88179 516.73665,201.29498 517.37400,201.70741 "/>
      <polyline fill="none" stroke="#000000" stroke-width="4.0pt" stroke-dasharray="none" stroke-opacity="1.00" points=","/>
      <polyline fill="none" stroke="#000000" stroke-width="4.0pt" stroke-dasharray="none" stroke-opacity="1.00" points=","/>
      <polyline fill="none" stroke="#000000" stroke-width="4.0pt" stroke-dasharray="none" stroke-opacity="1.00" points=","/>
      <polyline fill="none" stroke="#000000" stroke-width="4.0pt" stroke-dasharray="none" stroke-opacity="1.00" points=","/>
      <polyline fill="none" stroke="#000000" stroke-width="4.0pt" stroke-dasharray="none" stroke-opacity="1.00" points=","/>
      <polyline fill="none" stroke="#000000" stroke-width="4.0pt" stroke-dasharray="none" stroke-opacity="1.00" points=","/>
      <polyline fill="none" stroke="#000000" stroke-width="4.0pt" stroke-dasharray="none" stroke-opacity="1.00" points=","/>
      <polyline fill="none" stroke="#000000" stroke-width="4.0pt" stroke-dasharray="none" stroke-opacity="1.00" points=","/>
      <polyline fill="none" stroke="#000000" stroke-width="4.0pt" stroke-dasharray="none" stroke-opacity="1.00" points=","/>
      <polyline fill="none" stroke="#000000" stroke-width="4.0pt" stroke-dasharray="none" stroke-opacity="1.00" points=","/>
      <polyline fill="none" stroke="#000000" stroke-width="4.0pt" stroke-dasharray="none" stroke-opacity="1.00" points=","/>
      <polyline fill="none" stroke="#000000" stroke-width="4.0pt" stroke-dasharray="none" stroke-opacity="1.00" points=","/>
      <polyline fill="none" stroke="#000000" stroke-width="4.0pt" stroke-dasharray="none" stroke-opacity="1.00" points=","/>
      <polyline fill="none" stroke="#000000" stroke-width="4.0pt" stroke-dasharray="none" stroke-opacity="1.00" points=","/>
      <polyline fill="none" stroke="#000000" stroke-width="4.0pt" stroke-dasharray="none" stroke-opacity="1.00" points=","/>
      <polyline fill="none" stroke="#000000" stroke-width="4.0pt" stroke-dasharray="none" stroke-opacity="1.00" points=","/>
      <polyline fill="none" stroke="#000000" stroke-width="4.0pt" stroke-dasharray="none" stroke-opacity="1.00" points=","/>
      <polyline fill="none" stroke="#000000" stroke-width="4.0pt" stroke-dasharray="none" stroke-opacity="1.00" points=","/>
      <polyline fill="none" stroke="#000000" stroke-width="4.0pt" stroke-dasharray="none" stroke-opacity="1.00" points=","/>
      <polyline fill="none" stroke="#000000" stroke-width="4.0pt" stroke-dasharray="none" stroke-opacity="1.00" points=","/>
      <polyline fill="none" stroke="#000000" stroke-width="4.0pt" stroke-dasharray="none" stroke-opacity="1.00" points=","/>
      <polyline fill="none" stroke="#000000" stroke-width="4.0pt" stroke-dasharray="none" stroke-opacity="1.00" points=","/>
      <polyline fill="none" stroke="#000000" stroke-width="4.0pt" stroke-dasharray="none" stroke-opacity="1.00" points=","/>
      <polyline fill="none" stroke="#000000" stroke-width="4.0pt" stroke-dasharray="none" stroke-opacity="1.00" points=","/>
      <polyline fill="none" stroke="#000000" stroke-width="4.0pt" stroke-dasharray="none" stroke-opacity="1.00" points=","/>
      <polyline fill="none" stroke="#000000" stroke-width="4.0pt" stroke-dasharray="none" stroke-opacity="1.00" points=","/>
      <polyline fill="none" stroke="#000000" stroke-width="4.0pt" stroke-dasharray="none" stroke-opacity="1.00" points=","/>
      <polyline fill="none" stroke="#000000" stroke-width="4.0pt" stroke-dasharray="none" stroke-opacity="1.00" points=","/>
      <polyline fill="none" stroke="#000000" stroke-width="4.0pt" stroke-dasharray="none" stroke-opacity="1.00" points=","/>
      <polyline fill="none" stroke="#000000" stroke-width="4.0pt" stroke-dasharray="none" stroke-opacity="1.00" points=","/>
      <polyline fill="none" stroke="#000000" stroke-width="4.0pt" stroke-dasharray="none" stroke-opacity="1.00" points=","/>
      <polyline fill="none" stroke="#000000" stroke-width="4.0pt" stroke-dasharray="none" stroke-opacity="1.00" points=","/>
      <polyline fill="none" stroke="#000000" stroke-width="4.0pt" stroke-dasharray="none" stroke-opacity="1.00" points=","/>
      <polyline fill="none" stroke="#000000" stroke-width="4.0pt" stroke-dasharray="none" stroke-opacity="1.00" points=","/>
      <polyline fill="none" stroke="#000000" stroke-width="4.0pt" stroke-dasharray="none" stroke-opacity="1.00" points=","/>
      <polyline fill="none" stroke="#000000" stroke-width="4.0pt" stroke-dasharray="none" stroke-opacity="1.00" points=","/>
      <polyline fill="none" stroke="#000000" stroke-width="4.0pt" stroke-dasharray="none" stroke-opacity="1.00" points=","/>
      <polyline fill="none" stroke="#000000" stroke-width="4.0pt" stroke-dasharray="none" stroke-opacity="1.00" points=","/>
      <polyline fill="none" stroke="#000000" stroke-width="4.0pt" stroke-dasharray="none" stroke-opacity="1.00" points=","/>
      <polyline fill="none" stroke="#000000" stroke-width="4.0pt" stroke-dasharray="none" stroke-opacity="1.00" points=","/>
      <polyline fill="none" stroke="#000000" stroke-width="4.0pt" stroke-dasharray="none" stroke-opacity="1.00" points=","/>
      <polyline fill="none" stroke="#000000" stroke-width="4.0pt" stroke-dasharray="none" stroke-opacity="1.00" points=","/>
      <polyline fill="none" stroke="#000000" stroke-width="4.0pt" stroke-dasharray="none" stroke-opacity="1.00" points=","/>
      <polyline fill="none" stroke="#000000" stroke-width="4.0pt" stroke-dasharray="none" stroke-opacity="1.00" points=","/>
      <polyline fill="none" stroke="#000000" stroke-width="4.0pt" stroke-dasharray="none" stroke-opacity="1.00" points=","/>
      <polyline fill="none" stroke="#000000" stroke-width="4.0pt" stroke-dasharray="none" stroke-opacity="1.00" points=","/>
      <polyline fill="none" stroke="#000000" stroke-width="4.0pt" stroke-dasharray="none" stroke-opacity="1.00" points=","/>
      <polyline fill="none" stroke="#000000" stroke-width="4.0pt" stroke-dasharray="none" stroke-opacity="1.00" points=","/>
      <polyline fill="none" stroke="#000000" stroke-width="4.0pt" stroke-dasharray="none" stroke-opacity="1.00" points=","/>
      <polyline fill="none" stroke="#000000" stroke-width="4.0pt" stroke-dasharray="none" stroke-opacity="1.00" points=","/>
      <polyline fill="none" stroke="#000000" stroke-width="4.0pt" stroke-dasharray="none" stroke-opacity="1.00" points=","/>
      <polyline fill="none" stroke="#000000" stroke-width="4.0pt" stroke-dasharray="none" stroke-opacity="1.00" points=","/>
      <polyline fill="none" stroke="#000000" stroke-width="4.0pt" stroke-dasharray="none" stroke-opacity="1.00" points=","/>
      <polyline fill="none" stroke="#000000" stroke-width="4.0pt" stroke-dasharray="none" stroke-opacity="1.00" points=","/>
      <polyline fill="none" stroke="#000000" stroke-width="4.0pt" stroke-dasharray="none" stroke-opacity="1.00" points=","/>
      <polyline fill="none" stroke="#000000" stroke-width="4.0pt" stroke-dasharray="none" stroke-opacity="1.00" points=","/>
      <polyline fill="none" stroke="#000000" stroke-width="4.0pt" stroke-dasharray="none" stroke-opacity="1.00" points=","/>
      <polyline fill="none" stroke="#000000" stroke-width="4.0pt" stroke-dasharray="none" stroke-opacity="1.00" points=","/>
      <polyline fill="none" stroke="#000000" stroke-width="4.0pt" stroke-dasharray="none" stroke-opacity="1.00" points=","/>
      <polyline fill="none" stroke="#000000" stroke-width="4.0pt" stroke-dasharray="none" stroke-opacity="1.00" points=","/>
      <polyline fill="none" stroke="#000000" stroke-width="4.0pt" stroke-dasharray="none" stroke-opacity="1.00" points=","/>
      <polyline fill="none" stroke="#000000" stroke-width="4.0pt" stroke-dasharray="none" stroke-opacity="1.00" points=","/>
      <polyline fill="none" stroke="#000000" stroke-width="4.0pt" stroke-dasharray="none" stroke-opacity="1.00" points=","/>
</g>
    </g>
  </g>
  </g>
</svg>
