<?xml version="1.0" encoding="utf-8"?>
<!-- Generator: Adobe Illustrator 16.0.0, SVG Export Plug-In . SVG Version: 6.00 Build 0)  -->
<!DOCTYPE svg PUBLIC "-//W3C//DTD SVG 1.1//EN" "http://www.w3.org/Graphics/SVG/1.1/DTD/svg11.dtd">
<svg version="1.1" id="Layer_1" xmlns="http://www.w3.org/2000/svg" xmlns:xlink="http://www.w3.org/1999/xlink" x="0px" y="0px"
	 width="595.279px" height="841.891px" viewBox="0 0 595.279 841.891" enable-background="new 0 0 595.279 841.891"
	 xml:space="preserve">
<desc>Matlab Figure Converted by PLOT2SVG written by Juerg Schwizer</desc>
<g id="topgroup">
	<rect x="0" fill="#FFFFFF" width="595.279" height="383.892"/>
	<g id="ID000000">
		<polygon fill="#FFFFFF" points="328.239,341.664 538.729,249.502 287.876,172.17 77.386,264.332 		"/>
		<polygon fill="#FFFFFF" points="538.729,249.502 287.876,172.17 287.876,28.792 538.729,106.125 		"/>
		<polygon fill="#FFFFFF" points="77.386,264.332 287.876,172.17 287.876,28.792 77.386,120.954 		"/>
		<line fill="none" stroke="#000000" stroke-opacity="0.15" x1="328.239" y1="341.664" x2="77.386" y2="264.331"/>
		<line fill="none" stroke="#000000" stroke-opacity="0.15" x1="380.861" y1="318.624" x2="130.009" y2="241.291"/>
		<line fill="none" stroke="#000000" stroke-opacity="0.15" x1="433.484" y1="295.583" x2="182.631" y2="218.25"/>
		<line fill="none" stroke="#000000" stroke-opacity="0.15" x1="486.106" y1="272.543" x2="235.254" y2="195.21"/>
		<line fill="none" stroke="#000000" stroke-opacity="0.15" x1="538.729" y1="249.502" x2="287.876" y2="172.17"/>
		<line fill="none" stroke="#000000" x1="328.239" y1="341.664" x2="538.729" y2="249.502"/>
		<line fill="none" stroke="#000000" x1="77.386" y1="264.331" x2="287.876" y2="172.17"/>
		<line fill="none" stroke="#000000" stroke-opacity="0.15" x1="328.239" y1="341.664" x2="538.729" y2="249.502"/>
		<line fill="none" stroke="#000000" stroke-opacity="0.15" x1="265.526" y1="322.331" x2="476.016" y2="230.169"/>
		<line fill="none" stroke="#000000" stroke-opacity="0.15" x1="202.813" y1="302.998" x2="413.302" y2="210.836"/>
		<line fill="none" stroke="#000000" stroke-opacity="0.15" x1="140.1" y1="283.665" x2="350.589" y2="191.503"/>
		<line fill="none" stroke="#000000" stroke-opacity="0.15" x1="77.386" y1="264.331" x2="287.876" y2="172.17"/>
		<line fill="none" stroke="#000000" x1="328.239" y1="341.664" x2="77.386" y2="264.331"/>
		<line fill="none" stroke="#000000" x1="538.729" y1="249.502" x2="287.876" y2="172.17"/>
		<line fill="none" stroke="#000000" stroke-opacity="0.15" x1="538.729" y1="249.502" x2="538.729" y2="106.125"/>
		<line fill="none" stroke="#000000" stroke-opacity="0.15" x1="476.016" y1="230.169" x2="476.016" y2="86.792"/>
		<line fill="none" stroke="#000000" stroke-opacity="0.15" x1="413.302" y1="210.836" x2="413.302" y2="67.458"/>
		<line fill="none" stroke="#000000" stroke-opacity="0.15" x1="350.589" y1="191.503" x2="350.589" y2="48.125"/>
		<line fill="none" stroke="#000000" stroke-opacity="0.15" x1="287.876" y1="172.17" x2="287.876" y2="28.792"/>
		<line fill="none" stroke="#000000" x1="538.729" y1="249.502" x2="287.876" y2="172.17"/>
		<line fill="none" stroke="#000000" x1="538.729" y1="106.125" x2="287.876" y2="28.792"/>
		<line fill="none" stroke="#000000" stroke-opacity="0.15" x1="538.729" y1="245.158" x2="287.876" y2="167.825"/>
		<line fill="none" stroke="#000000" stroke-opacity="0.15" x1="538.729" y1="210.399" x2="287.876" y2="133.067"/>
		<line fill="none" stroke="#000000" stroke-opacity="0.15" x1="538.729" y1="175.641" x2="287.876" y2="98.309"/>
		<line fill="none" stroke="#000000" stroke-opacity="0.15" x1="538.729" y1="140.883" x2="287.876" y2="63.55"/>
		<line fill="none" stroke="#000000" stroke-opacity="0.15" x1="538.729" y1="106.125" x2="287.876" y2="28.792"/>
		<line fill="none" stroke="#000000" x1="538.729" y1="249.502" x2="538.729" y2="106.125"/>
		<line fill="none" stroke="#000000" x1="287.876" y1="172.17" x2="287.876" y2="28.792"/>
		<line fill="none" stroke="#000000" stroke-opacity="0.15" x1="77.386" y1="264.331" x2="77.386" y2="120.954"/>
		<line fill="none" stroke="#000000" stroke-opacity="0.15" x1="130.009" y1="241.291" x2="130.009" y2="97.913"/>
		<line fill="none" stroke="#000000" stroke-opacity="0.15" x1="182.631" y1="218.25" x2="182.631" y2="74.873"/>
		<line fill="none" stroke="#000000" stroke-opacity="0.15" x1="235.254" y1="195.21" x2="235.254" y2="51.832"/>
		<line fill="none" stroke="#000000" stroke-opacity="0.15" x1="287.876" y1="172.17" x2="287.876" y2="28.792"/>
		<line fill="none" stroke="#000000" x1="77.386" y1="264.331" x2="287.876" y2="172.17"/>
		<line fill="none" stroke="#000000" x1="77.386" y1="120.954" x2="287.876" y2="28.792"/>
		<line fill="none" stroke="#000000" stroke-opacity="0.15" x1="77.386" y1="259.986" x2="287.876" y2="167.825"/>
		<line fill="none" stroke="#000000" stroke-opacity="0.15" x1="77.386" y1="225.229" x2="287.876" y2="133.067"/>
		<line fill="none" stroke="#000000" stroke-opacity="0.15" x1="77.386" y1="190.47" x2="287.876" y2="98.309"/>
		<line fill="none" stroke="#000000" stroke-opacity="0.15" x1="77.386" y1="155.712" x2="287.876" y2="63.55"/>
		<line fill="none" stroke="#000000" stroke-opacity="0.15" x1="77.386" y1="120.954" x2="287.876" y2="28.792"/>
		<line fill="none" stroke="#000000" x1="77.386" y1="264.331" x2="77.386" y2="120.954"/>
		<line fill="none" stroke="#000000" x1="287.876" y1="172.17" x2="287.876" y2="28.792"/>
		<g>
			<g id="ID000002">
			</g>
			<g id="ID000005">
			</g>
			<g>
				<defs>
					<rect id="SVGID_1_" x="77.386" y="28.792" width="461.343" height="312.872"/>
				</defs>
				<clipPath id="SVGID_2_">
					<use xlink:href="#SVGID_1_"  overflow="visible"/>
				</clipPath>
				<g id="ID000006" clip-path="url(#SVGID_2_)">
					<polyline fill="none" stroke="#000000" points="350.155,154.782 348.586,154.276 347.019,153.769 345.45,153.259 
						343.883,152.748 342.315,152.234 340.747,151.718 339.18,151.199 337.612,150.678 336.044,150.153 334.476,149.626 
						332.908,149.095 331.34,148.562 329.773,148.023 328.205,147.481 326.637,146.936 325.07,146.386 323.501,145.831 
						321.934,145.271 320.365,144.706 318.798,144.135 317.231,143.559 315.662,142.977 314.095,142.388 312.527,141.793 
						310.959,141.191 309.392,140.583 307.823,139.967 306.256,139.344 304.688,138.714 303.12,138.075 301.553,137.429 
						299.985,136.775 298.417,136.113 296.849,135.442 295.281,134.763 293.714,134.076 292.146,133.38 290.578,132.676 
						289.01,131.963 287.443,131.243 287.443,131.243 285.843,132.027 284.243,132.825 282.644,133.635 281.044,134.458 
						278.413,135.842 275.782,137.264 273.152,138.727 270.52,140.232 267.889,141.783 265.258,143.383 262.627,145.036 
						259.995,146.745 257.365,148.512 254.734,150.338 252.102,152.223 249.471,154.158 246.84,156.13 244.209,158.12 
						241.577,160.106 238.947,162.071 236.316,163.999 233.685,165.884 231.053,167.722 228.422,169.513 225.791,171.262 
						223.159,172.973 220.529,174.649 217.898,176.294 215.267,177.912 212.635,179.505 210.004,181.077 207.373,182.629 
						204.742,184.164 202.111,185.684 199.48,187.189 196.849,188.683 194.217,190.164 191.586,191.635 188.955,193.095 
						186.324,194.546 185.292,195.113 184.261,195.678 183.229,196.242 182.198,196.804 182.198,196.804 183.765,197.99 
						185.333,199.178 186.901,200.368 188.469,201.561 190.036,202.755 191.605,203.951 193.172,205.149 194.74,206.35 
						196.308,207.552 197.875,208.756 199.444,209.962 201.011,211.17 202.578,212.379 204.147,213.59 205.714,214.802 
						207.282,216.016 208.85,217.23 210.418,218.446 211.986,219.663 213.553,220.881 215.121,222.099 216.689,223.318 
						218.257,224.537 219.824,225.756 221.393,226.975 222.96,228.193 224.528,229.41 226.096,230.627 227.663,231.842 
						229.232,233.056 230.799,234.268 232.366,235.478 233.935,236.684 235.502,237.888 237.071,239.087 238.638,240.283 
						240.206,241.474 241.774,242.659 243.341,243.837 244.909,245.009 244.911,245.01 246.547,246.224 248.182,247.429 
						249.818,248.623 251.452,249.805 253.49,251.261 255.529,252.693 257.568,254.101 259.606,255.479 261.644,256.825 
						263.682,258.136 265.72,259.408 267.758,260.637 269.796,261.819 271.834,262.951 273.872,264.028 275.91,265.048 
						277.948,266.006 279.987,266.901 282.025,267.73 284.063,268.491 286.101,269.184 288.139,269.807 290.177,270.361 
						292.216,270.849 294.254,271.272 296.292,271.632 298.33,271.935 300.368,272.182 302.406,272.379 304.445,272.531 
						306.483,272.643 308.521,272.719 310.559,272.765 312.597,272.786 314.635,272.786 316.673,272.771 318.711,272.743 
						320.749,272.707 322.787,272.666 324.825,272.624 325.229,272.616 325.631,272.607 326.034,272.6 326.438,272.591 
						326.438,272.591 328.683,271.055 330.928,269.516 333.173,267.975 335.418,266.433 339.102,263.902 342.785,261.366 
						346.469,258.818 350.153,256.247 353.836,253.635 357.52,250.963 361.203,248.206 364.887,245.335 368.571,242.32 
						372.254,239.133 375.938,235.755 379.621,232.185 383.305,228.442 386.989,224.584 390.672,220.687 394.356,216.842 
						398.038,213.137 401.722,209.637 405.406,206.375 409.089,203.361 412.773,200.581 416.456,198.008 420.14,195.614 
						423.823,193.369 427.507,191.246 431.191,189.223 434.874,187.279 438.558,185.399 442.241,183.571 445.925,181.784 
						449.609,180.029 453.292,178.3 456.976,176.593 460.659,174.901 464.343,173.223 468.027,171.554 469.465,170.904 
						470.904,170.256 472.342,169.608 473.781,168.961 473.781,168.961 471.742,168.077 469.704,167.193 467.666,166.31 
						465.628,165.425 463.589,164.542 461.551,163.659 459.513,162.777 457.475,161.896 455.437,161.017 453.399,160.14 
						451.361,159.265 449.323,158.393 447.284,157.523 445.246,156.656 443.208,155.793 441.17,154.934 439.132,154.078 
						437.094,153.227 435.056,152.38 433.018,151.537 430.98,150.699 428.941,149.867 426.903,149.039 424.865,148.216 
						422.826,147.399 420.788,146.588 418.75,145.782 416.712,144.981 414.674,144.186 412.636,143.396 410.598,142.613 
						408.56,141.834 406.522,141.062 404.484,140.294 402.446,139.532 400.407,138.774 398.369,138.022 396.331,137.274 
						394.292,136.532 392.254,135.793 392.252,135.792 391.999,135.7 391.745,135.609 391.492,135.518 391.24,135.426 
						389.973,134.971 388.706,134.516 387.441,134.063 386.174,133.611 383.039,132.497 379.904,131.387 376.768,130.28 
						373.632,129.173 370.496,128.062 367.361,126.942 364.225,125.808 361.089,124.651 357.953,123.465 354.819,122.237 
						351.683,120.958 348.547,119.619 345.411,118.213 342.276,116.735 339.14,115.187 336.004,113.569 332.868,111.886 
						329.734,110.146 326.598,108.354 323.462,106.516 320.326,104.637 317.191,102.723 314.055,100.778 310.919,98.805 
						307.783,96.806 304.649,94.785 301.513,92.744 298.377,90.684 295.241,88.607 292.106,86.515 288.97,84.408 285.835,82.287 
						282.699,80.154 279.564,78.01 276.428,75.854 273.292,73.689 271.676,72.569 270.06,71.447 268.444,70.322 266.827,69.195 
											"/>
				</g>
			</g>
			<g>
				<defs>
					<rect id="SVGID_3_" x="77.386" y="28.792" width="461.343" height="312.872"/>
				</defs>
				<clipPath id="SVGID_4_">
					<use xlink:href="#SVGID_3_"  overflow="visible"/>
				</clipPath>
				<g id="ID000007" clip-path="url(#SVGID_4_)">
					<polygon fill="#EAEAEA" stroke="#000000" stroke-width="2" points="328.239,341.664 538.729,249.502 287.876,172.17 
						77.386,264.332 					"/>
				</g>
			</g>
			<g>
				<defs>
					<rect id="SVGID_5_" x="77.386" y="28.792" width="461.343" height="312.872"/>
				</defs>
				<clipPath id="SVGID_6_">
					<use xlink:href="#SVGID_5_"  overflow="visible"/>
				</clipPath>
				<g id="ID000008" clip-path="url(#SVGID_6_)">
					<polygon fill="#EAEAEA" stroke="#000000" stroke-width="2" points="328.239,337.319 538.729,245.158 287.876,167.825 
						77.386,259.987 					"/>
				</g>
			</g>
			<g>
				<defs>
					<rect id="SVGID_7_" x="77.386" y="28.792" width="461.343" height="312.872"/>
				</defs>
				<clipPath id="SVGID_8_">
					<use xlink:href="#SVGID_7_"  overflow="visible"/>
				</clipPath>
				<g id="ID000009" clip-path="url(#SVGID_8_)">
					<polygon fill="#EAEAEA" stroke="#000000" stroke-width="2" points="328.239,341.664 328.239,337.319 77.386,259.987 
						77.386,264.332 					"/>
				</g>
			</g>
			<g>
				<defs>
					<rect id="SVGID_9_" x="77.386" y="28.792" width="461.343" height="312.872"/>
				</defs>
				<clipPath id="SVGID_10_">
					<use xlink:href="#SVGID_9_"  overflow="visible"/>
				</clipPath>
				<g id="ID000010" clip-path="url(#SVGID_10_)">
					<polygon fill="#EAEAEA" stroke="#000000" stroke-width="2" points="328.239,341.664 538.729,249.502 538.729,245.158 
						328.239,337.319 					"/>
				</g>
			</g>
			<g>
				<defs>
					<rect id="SVGID_11_" x="77.386" y="28.792" width="461.343" height="312.872"/>
				</defs>
				<clipPath id="SVGID_12_">
					<use xlink:href="#SVGID_11_"  overflow="visible"/>
				</clipPath>
				<g id="ID000011" clip-path="url(#SVGID_12_)">
					<line fill="none" stroke="#000000" stroke-dasharray="8,2" x1="202.813" y1="298.653" x2="413.302" y2="206.491"/>
				</g>
			</g>
			<g>
				<defs>
					<rect id="SVGID_13_" x="77.386" y="28.792" width="461.343" height="312.872"/>
				</defs>
				<clipPath id="SVGID_14_">
					<use xlink:href="#SVGID_13_"  overflow="visible"/>
				</clipPath>
				<g id="ID000012" clip-path="url(#SVGID_14_)">
					<polyline fill="none" stroke="#000000" stroke-width="2" points="350.155,234.14 348.586,233.656 347.019,233.173 
						345.45,232.689 343.883,232.206 342.315,231.723 340.747,231.239 339.18,230.756 337.612,230.273 336.044,229.79 
						334.476,229.306 332.908,228.823 331.34,228.34 329.773,227.856 328.205,227.373 326.637,226.89 325.07,226.406 
						323.501,225.923 321.934,225.439 320.365,224.957 318.798,224.473 317.231,223.99 315.662,223.506 314.095,223.023 
						312.527,222.54 310.959,222.057 309.392,221.573 307.823,221.09 306.256,220.606 304.688,220.123 303.12,219.64 
						301.553,219.156 299.985,218.673 298.417,218.19 296.849,217.707 295.281,217.223 293.714,216.74 292.146,216.257 
						290.578,215.773 289.01,215.29 287.443,214.807 287.443,214.807 285.843,215.507 284.243,216.207 282.644,216.908 
						281.044,217.608 278.413,218.76 275.782,219.912 273.152,221.064 270.52,222.216 267.889,223.368 265.258,224.52 
						262.627,225.672 259.995,226.824 257.365,227.976 254.734,229.128 252.102,230.28 249.471,231.432 246.84,232.584 
						244.209,233.736 241.577,234.888 238.947,236.04 236.316,237.192 233.685,238.344 231.053,239.496 228.422,240.648 
						225.791,241.8 223.159,242.952 220.529,244.104 217.898,245.256 215.267,246.408 212.635,247.561 210.004,248.712 
						207.373,249.864 204.742,251.017 202.111,252.168 199.48,253.32 196.849,254.473 194.217,255.625 191.586,256.776 
						188.955,257.929 186.324,259.081 185.292,259.532 184.261,259.984 183.229,260.436 182.198,260.887 182.198,260.887 
						183.765,261.371 185.333,261.854 186.901,262.337 188.469,262.821 190.036,263.304 191.605,263.787 193.172,264.271 
						194.74,264.754 196.308,265.237 197.875,265.721 199.444,266.204 201.011,266.688 202.578,267.17 204.147,267.654 
						205.714,268.137 207.282,268.621 208.85,269.104 210.418,269.587 211.986,270.07 213.553,270.554 215.121,271.037 
						216.689,271.521 218.257,272.004 219.824,272.487 221.393,272.97 222.96,273.454 224.528,273.937 226.096,274.42 
						227.663,274.904 229.232,275.387 230.799,275.87 232.366,276.354 233.935,276.837 235.502,277.32 237.071,277.804 
						238.638,278.287 240.206,278.771 241.774,279.253 243.341,279.737 244.909,280.22 244.911,280.221 246.547,280.725 
						248.182,281.229 249.818,281.733 251.452,282.237 253.49,282.866 255.529,283.494 257.568,284.123 259.606,284.75 
						261.644,285.379 263.682,286.007 265.72,286.636 267.758,287.264 269.796,287.892 271.834,288.521 273.872,289.149 
						275.91,289.777 277.948,290.405 279.987,291.034 282.025,291.662 284.063,292.291 286.101,292.919 288.139,293.547 
						290.177,294.175 292.216,294.804 294.254,295.432 296.292,296.061 298.33,296.688 300.368,297.317 302.406,297.945 
						304.445,298.574 306.483,299.202 308.521,299.83 310.559,300.458 312.597,301.087 314.635,301.715 316.673,302.344 
						318.711,302.972 320.749,303.6 322.787,304.229 324.825,304.857 325.229,304.981 325.631,305.105 326.034,305.229 
						326.438,305.354 326.438,305.354 328.683,304.371 330.928,303.388 333.173,302.405 335.418,301.421 339.102,299.809 
						342.785,298.196 346.469,296.583 350.153,294.97 353.836,293.357 357.52,291.745 361.203,290.132 364.887,288.519 
						368.571,286.906 372.254,285.293 375.938,283.681 379.621,282.067 383.305,280.455 386.989,278.842 390.672,277.229 
						394.356,275.616 398.038,274.003 401.722,272.391 405.406,270.778 409.089,269.165 412.773,267.552 416.456,265.939 
						420.14,264.327 423.823,262.714 427.507,261.101 431.191,259.488 434.874,257.875 438.558,256.263 442.241,254.649 
						445.925,253.037 449.609,251.424 453.292,249.811 456.976,248.198 460.659,246.585 464.343,244.973 468.027,243.36 
						469.465,242.73 470.904,242.1 472.342,241.471 473.781,240.841 473.781,240.841 471.742,240.212 469.704,239.584 
						467.666,238.956 465.628,238.327 463.589,237.699 461.551,237.071 459.513,236.442 457.475,235.814 455.437,235.186 
						453.399,234.558 451.361,233.929 449.323,233.301 447.284,232.672 445.246,232.044 443.208,231.416 441.17,230.788 
						439.132,230.159 437.094,229.531 435.056,228.902 433.018,228.274 430.98,227.646 428.941,227.018 426.903,226.389 
						424.865,225.761 422.826,225.133 420.788,224.504 418.75,223.876 416.712,223.248 414.674,222.619 412.636,221.991 
						410.598,221.363 408.56,220.734 406.522,220.106 404.484,219.478 402.446,218.85 400.407,218.221 398.369,217.593 
						396.331,216.964 394.292,216.336 392.254,215.708 392.252,215.707 391.999,215.629 391.745,215.551 391.492,215.473 
						391.24,215.395 389.973,215.004 388.706,214.614 387.441,214.224 386.174,213.833 383.039,212.867 379.904,211.9 
						376.768,210.934 373.632,209.967 370.496,209 367.361,208.034 364.225,207.067 361.089,206.101 357.953,205.134 
						354.819,204.167 351.683,203.2 348.547,202.234 345.411,201.267 342.276,200.3 339.14,199.334 336.004,198.367 332.868,197.4 
						329.734,196.434 326.598,195.467 323.462,194.5 320.326,193.534 317.191,192.567 314.055,191.601 310.919,190.634 
						307.783,189.667 304.649,188.701 301.513,187.734 298.377,186.768 295.241,185.801 292.106,184.834 288.97,183.867 
						285.835,182.901 282.699,181.934 279.564,180.967 276.428,180.001 273.292,179.034 271.676,178.536 270.06,178.038 
						268.444,177.54 266.827,177.041 					"/>
				</g>
			</g>
			<g>
				<defs>
					<rect id="SVGID_15_" x="77.386" y="28.792" width="461.343" height="312.872"/>
				</defs>
				<clipPath id="SVGID_16_">
					<use xlink:href="#SVGID_15_"  overflow="visible"/>
				</clipPath>
				<g id="ID000013" clip-path="url(#SVGID_16_)">
					
						<line fill="none" stroke="#7F7F7F" stroke-width="0.5" stroke-dasharray="8,2" x1="350.155" y1="234.14" x2="350.155" y2="155.651"/>
				</g>
			</g>
			<g>
				<defs>
					<rect id="SVGID_17_" x="77.386" y="28.792" width="461.343" height="312.872"/>
				</defs>
				<clipPath id="SVGID_18_">
					<use xlink:href="#SVGID_17_"  overflow="visible"/>
				</clipPath>
				<g id="ID000014" clip-path="url(#SVGID_18_)">
					
						<line fill="none" stroke="#7F7F7F" stroke-width="0.5" stroke-dasharray="8,2" x1="312.527" y1="222.54" x2="312.527" y2="142.662"/>
				</g>
			</g>
			<g>
				<defs>
					<rect id="SVGID_19_" x="77.386" y="28.792" width="461.343" height="312.872"/>
				</defs>
				<clipPath id="SVGID_20_">
					<use xlink:href="#SVGID_19_"  overflow="visible"/>
				</clipPath>
				<g id="ID000015" clip-path="url(#SVGID_20_)">
					
						<line fill="none" stroke="#7F7F7F" stroke-width="0.5" stroke-dasharray="8,2" x1="276.917" y1="219.416" x2="276.917" y2="137.516"/>
				</g>
			</g>
			<g>
				<defs>
					<rect id="SVGID_21_" x="77.386" y="28.792" width="461.343" height="312.872"/>
				</defs>
				<clipPath id="SVGID_22_">
					<use xlink:href="#SVGID_21_"  overflow="visible"/>
				</clipPath>
				<g id="ID000016" clip-path="url(#SVGID_22_)">
					
						<line fill="none" stroke="#7F7F7F" stroke-width="0.5" stroke-dasharray="8,2" x1="245.344" y1="233.239" x2="245.344" y2="158.13"/>
				</g>
			</g>
			<g>
				<defs>
					<rect id="SVGID_23_" x="77.386" y="28.792" width="461.343" height="312.872"/>
				</defs>
				<clipPath id="SVGID_24_">
					<use xlink:href="#SVGID_23_"  overflow="visible"/>
				</clipPath>
				<g id="ID000017" clip-path="url(#SVGID_24_)">
					
						<line fill="none" stroke="#7F7F7F" stroke-width="0.5" stroke-dasharray="8,2" x1="213.77" y1="247.063" x2="213.77" y2="179.69"/>
				</g>
			</g>
			<g>
				<defs>
					<rect id="SVGID_25_" x="77.386" y="28.792" width="461.343" height="312.872"/>
				</defs>
				<clipPath id="SVGID_26_">
					<use xlink:href="#SVGID_25_"  overflow="visible"/>
				</clipPath>
				<g id="ID000018" clip-path="url(#SVGID_26_)">
					
						<line fill="none" stroke="#7F7F7F" stroke-width="0.5" stroke-dasharray="8,2" x1="182.198" y1="260.888" x2="182.198" y2="197.674"/>
				</g>
			</g>
			<g>
				<defs>
					<rect id="SVGID_27_" x="77.386" y="28.792" width="461.343" height="312.872"/>
				</defs>
				<clipPath id="SVGID_28_">
					<use xlink:href="#SVGID_27_"  overflow="visible"/>
				</clipPath>
				<g id="ID000019" clip-path="url(#SVGID_28_)">
					
						<line fill="none" stroke="#7F7F7F" stroke-width="0.5" stroke-dasharray="8,2" x1="219.826" y1="272.487" x2="219.826" y2="226.626"/>
				</g>
			</g>
			<g>
				<defs>
					<rect id="SVGID_29_" x="77.386" y="28.792" width="461.343" height="312.872"/>
				</defs>
				<clipPath id="SVGID_30_">
					<use xlink:href="#SVGID_29_"  overflow="visible"/>
				</clipPath>
				<g id="ID000020" clip-path="url(#SVGID_30_)">
					
						<line fill="none" stroke="#7F7F7F" stroke-width="0.5" stroke-dasharray="8,2" x1="257.454" y1="284.087" x2="257.454" y2="254.892"/>
				</g>
			</g>
			<g>
				<defs>
					<rect id="SVGID_31_" x="77.386" y="28.792" width="461.343" height="312.872"/>
				</defs>
				<clipPath id="SVGID_32_">
					<use xlink:href="#SVGID_31_"  overflow="visible"/>
				</clipPath>
				<g id="ID000021" clip-path="url(#SVGID_32_)">
					
						<line fill="none" stroke="#7F7F7F" stroke-width="0.5" stroke-dasharray="8,2" x1="295.081" y1="295.688" x2="295.081" y2="272.294"/>
				</g>
			</g>
			<g>
				<defs>
					<rect id="SVGID_33_" x="77.386" y="28.792" width="461.343" height="312.872"/>
				</defs>
				<clipPath id="SVGID_34_">
					<use xlink:href="#SVGID_33_"  overflow="visible"/>
				</clipPath>
				<g id="ID000022" clip-path="url(#SVGID_34_)">
					
						<line fill="none" stroke="#7F7F7F" stroke-width="0.5" stroke-dasharray="8,2" x1="331.704" y1="303.068" x2="331.704" y2="269.87"/>
				</g>
			</g>
			<g>
				<defs>
					<rect id="SVGID_35_" x="77.386" y="28.792" width="461.343" height="312.872"/>
				</defs>
				<clipPath id="SVGID_36_">
					<use xlink:href="#SVGID_35_"  overflow="visible"/>
				</clipPath>
				<g id="ID000023" clip-path="url(#SVGID_36_)">
					
						<line fill="none" stroke="#7F7F7F" stroke-width="0.5" stroke-dasharray="8,2" x1="363.274" y1="289.225" x2="363.274" y2="247.477"/>
				</g>
			</g>
			<g>
				<defs>
					<rect id="SVGID_37_" x="77.386" y="28.792" width="461.343" height="312.872"/>
				</defs>
				<clipPath id="SVGID_38_">
					<use xlink:href="#SVGID_37_"  overflow="visible"/>
				</clipPath>
				<g id="ID000024" clip-path="url(#SVGID_38_)">
					
						<line fill="none" stroke="#7F7F7F" stroke-width="0.5" stroke-dasharray="8,2" x1="394.847" y1="275.401" x2="394.847" y2="217.206"/>
				</g>
			</g>
			<g>
				<defs>
					<rect id="SVGID_39_" x="77.386" y="28.792" width="461.343" height="312.872"/>
				</defs>
				<clipPath id="SVGID_40_">
					<use xlink:href="#SVGID_39_"  overflow="visible"/>
				</clipPath>
				<g id="ID000025" clip-path="url(#SVGID_40_)">
					
						<line fill="none" stroke="#7F7F7F" stroke-width="0.5" stroke-dasharray="8,2" x1="426.42" y1="261.577" x2="426.42" y2="192.73"/>
				</g>
			</g>
			<g>
				<defs>
					<rect id="SVGID_41_" x="77.386" y="28.792" width="461.343" height="312.872"/>
				</defs>
				<clipPath id="SVGID_42_">
					<use xlink:href="#SVGID_41_"  overflow="visible"/>
				</clipPath>
				<g id="ID000026" clip-path="url(#SVGID_42_)">
					
						<line fill="none" stroke="#7F7F7F" stroke-width="0.5" stroke-dasharray="8,2" x1="457.994" y1="247.752" x2="457.994" y2="176.993"/>
				</g>
			</g>
			<g>
				<defs>
					<rect id="SVGID_43_" x="77.386" y="28.792" width="461.343" height="312.872"/>
				</defs>
				<clipPath id="SVGID_44_">
					<use xlink:href="#SVGID_43_"  overflow="visible"/>
				</clipPath>
				<g id="ID000027" clip-path="url(#SVGID_44_)">
					
						<line fill="none" stroke="#7F7F7F" stroke-width="0.5" stroke-dasharray="8,2" x1="454.966" y1="235.041" x2="454.966" y2="161.683"/>
				</g>
			</g>
			<g>
				<defs>
					<rect id="SVGID_45_" x="77.386" y="28.792" width="461.343" height="312.872"/>
				</defs>
				<clipPath id="SVGID_46_">
					<use xlink:href="#SVGID_45_"  overflow="visible"/>
				</clipPath>
				<g id="ID000028" clip-path="url(#SVGID_46_)">
					
						<line fill="none" stroke="#7F7F7F" stroke-width="0.5" stroke-dasharray="8,2" x1="417.338" y1="223.44" x2="417.338" y2="146.095"/>
				</g>
			</g>
			<g>
				<defs>
					<rect id="SVGID_47_" x="77.386" y="28.792" width="461.343" height="312.872"/>
				</defs>
				<clipPath id="SVGID_48_">
					<use xlink:href="#SVGID_47_"  overflow="visible"/>
				</clipPath>
				<g id="ID000029" clip-path="url(#SVGID_48_)">
					
						<line fill="none" stroke="#7F7F7F" stroke-width="0.5" stroke-dasharray="8,2" x1="379.71" y1="211.841" x2="379.71" y2="132.188"/>
				</g>
			</g>
			<g>
				<defs>
					<rect id="SVGID_49_" x="77.386" y="28.792" width="461.343" height="312.872"/>
				</defs>
				<clipPath id="SVGID_50_">
					<use xlink:href="#SVGID_49_"  overflow="visible"/>
				</clipPath>
				<g id="ID000030" clip-path="url(#SVGID_50_)">
					
						<line fill="none" stroke="#7F7F7F" stroke-width="0.5" stroke-dasharray="8,2" x1="342.082" y1="200.241" x2="342.082" y2="117.511"/>
				</g>
			</g>
			<g>
				<defs>
					<rect id="SVGID_51_" x="77.386" y="28.792" width="461.343" height="312.872"/>
				</defs>
				<clipPath id="SVGID_52_">
					<use xlink:href="#SVGID_51_"  overflow="visible"/>
				</clipPath>
				<g id="ID000031" clip-path="url(#SVGID_52_)">
					
						<line fill="none" stroke="#7F7F7F" stroke-width="0.5" stroke-dasharray="8,2" x1="304.455" y1="188.641" x2="304.455" y2="95.529"/>
				</g>
			</g>
			<g>
				<defs>
					<rect id="SVGID_53_" x="77.386" y="28.792" width="461.343" height="312.872"/>
				</defs>
				<clipPath id="SVGID_54_">
					<use xlink:href="#SVGID_53_"  overflow="visible"/>
				</clipPath>
				<g id="ID000032" clip-path="url(#SVGID_54_)">
					
						<line fill="none" stroke="#7F7F7F" stroke-width="0.5" stroke-dasharray="8,2" x1="266.827" y1="177.041" x2="266.827" y2="70.064"/>
				</g>
			</g>
			<g>
				<defs>
					<rect id="SVGID_55_" x="77.386" y="28.792" width="461.343" height="312.872"/>
				</defs>
				<clipPath id="SVGID_56_">
					<use xlink:href="#SVGID_55_"  overflow="visible"/>
				</clipPath>
				<g id="ID000033" clip-path="url(#SVGID_56_)">
					<polygon fill="#FFFFFF" stroke="#CCCCCC" stroke-width="0.7" points="270.962,72.942 283.591,67.808 279.457,64.865 
						266.827,70.064 					"/>
					<polygon fill="#FFFFFF" stroke="#CCCCCC" stroke-width="0.7" points="275.136,75.833 287.766,70.767 283.591,67.808 
						270.962,72.942 					"/>
					<polygon fill="#FFFFFF" stroke="#CCCCCC" stroke-width="0.7" points="279.356,78.736 291.986,73.748 287.766,70.767 
						275.136,75.833 					"/>
					<polygon fill="#FFFFFF" stroke="#CCCCCC" stroke-width="0.7" points="283.626,81.655 296.255,76.755 291.986,73.748 
						279.356,78.736 					"/>
					<polygon fill="#FFFFFF" stroke="#CCCCCC" stroke-width="0.7" points="287.954,84.591 300.584,79.792 296.255,76.755 
						283.626,81.655 					"/>
					<polygon fill="#FFFFFF" stroke="#CCCCCC" stroke-width="0.7" points="292.35,87.547 304.979,82.864 300.584,79.792 
						287.954,84.591 					"/>
					<polygon fill="#FFFFFF" stroke="#CCCCCC" stroke-width="0.7" points="296.823,90.525 309.451,85.976 304.979,82.864 
						292.35,87.547 					"/>
					<polygon fill="#FFFFFF" stroke="#CCCCCC" stroke-width="0.7" points="301.388,93.531 314.017,89.134 309.451,85.976 
						296.823,90.525 					"/>
					<polygon fill="#FFFFFF" stroke="#CCCCCC" stroke-width="0.7" points="306.065,96.57 318.695,92.347 314.017,89.134 
						301.388,93.531 					"/>
					<polygon fill="#FFFFFF" stroke="#CCCCCC" stroke-width="0.7" points="310.882,99.649 323.512,95.629 318.695,92.347 
						306.065,96.57 					"/>
					<polygon fill="#FFFFFF" stroke="#CCCCCC" stroke-width="0.7" points="315.88,102.783 328.51,98.994 323.512,95.629 
						310.882,99.649 					"/>
					<polygon fill="#FFFFFF" stroke="#CCCCCC" stroke-width="0.7" points="321.124,105.988 333.754,102.462 328.51,98.994 
						315.88,102.783 					"/>
					<polygon fill="#FFFFFF" stroke="#CCCCCC" stroke-width="0.7" points="326.727,109.297 339.356,106.065 333.754,102.462 
						321.124,105.988 					"/>
					<polygon fill="#FFFFFF" stroke="#CCCCCC" stroke-width="0.7" points="332.902,112.773 345.531,109.84 339.356,106.065 
						326.727,109.297 					"/>
					<polygon fill="#FFFFFF" stroke="#CCCCCC" stroke-width="0.7" points="340.127,116.551 352.756,113.828 345.531,109.84 
						332.902,112.773 					"/>
					<polygon fill="#FFFFFF" stroke="#CCCCCC" stroke-width="0.7" points="349.705,120.99 362.334,118.092 352.756,113.828 
						340.127,116.551 					"/>
					<polygon fill="#FFFFFF" stroke="#CCCCCC" stroke-width="0.7" points="364.743,126.866 377.373,123.382 362.334,118.092 
						349.705,120.99 					"/>
					<polygon fill="#FFFFFF" stroke="#CCCCCC" stroke-width="0.7" points="384.203,133.779 396.833,129.727 377.373,123.382 
						364.743,126.866 					"/>
					<polygon fill="#FFFFFF" stroke="#CCCCCC" stroke-width="0.7" points="402.626,140.469 415.256,136.059 396.833,129.727 
						384.203,133.779 					"/>
					<polygon fill="#FFFFFF" stroke="#CCCCCC" stroke-width="0.7" points="296.772,136.277 307.829,129.488 278.071,124.012 
						285.542,133.057 					"/>
					<polygon fill="#FFFFFF" stroke="#CCCCCC" stroke-width="0.7" points="418.57,146.579 431.199,141.934 415.256,136.059 
						402.626,140.469 					"/>
					<polygon fill="#FFFFFF" stroke="#CCCCCC" stroke-width="0.7" points="310.084,141.722 322.713,135.701 307.829,129.488 
						296.772,136.277 					"/>
					<polygon fill="#FFFFFF" stroke="#CCCCCC" stroke-width="0.7" points="285.542,133.057 278.071,124.012 257.454,132.91 
						272.499,139.965 					"/>
					<polygon fill="#FFFFFF" stroke="#CCCCCC" stroke-width="0.7" points="432.455,152.175 445.084,147.296 431.199,141.934 
						418.57,146.579 					"/>
					<polygon fill="#FFFFFF" stroke="#CCCCCC" stroke-width="0.7" points="328.066,148.303 340.696,142.457 322.713,135.701 
						310.084,141.722 					"/>
					<polygon fill="#FFFFFF" stroke="#CCCCCC" stroke-width="0.7" points="272.499,139.965 257.454,132.91 248.438,138.097 
						263.49,145.357 					"/>
					<polygon fill="#FFFFFF" stroke="#CCCCCC" stroke-width="0.7" points="444.992,157.417 457.621,152.293 445.084,147.296 
						432.455,152.175 					"/>
					<polygon fill="#FFFFFF" stroke="#CCCCCC" stroke-width="0.7" points="263.49,145.357 248.438,138.097 241.566,142.228 
						256.617,149.893 					"/>
					<polygon fill="#FFFFFF" stroke="#CCCCCC" stroke-width="0.7" points="456.758,162.456 469.376,157.085 457.621,152.293 
						444.992,157.417 					"/>
					<polygon fill="#FFFFFF" stroke="#CCCCCC" stroke-width="0.7" points="256.617,149.893 241.566,142.228 235.893,145.638 
						250.945,153.938 					"/>
					<polygon fill="#FFFFFF" stroke="#CCCCCC" stroke-width="0.7" points="350.155,155.651 362.783,149.974 340.696,142.457 
						328.066,148.303 					"/>
					<polygon fill="#FFFFFF" stroke="#CCCCCC" stroke-width="0.7" points="250.945,153.938 235.893,145.638 230.814,148.637 
						245.865,157.736 					"/>
					<polygon fill="#FFFFFF" stroke="#CCCCCC" stroke-width="0.7" points="245.865,157.736 230.814,148.637 225.841,151.581 
						240.892,161.49 					"/>
					<polygon fill="#FFFFFF" stroke="#CCCCCC" stroke-width="0.7" points="468.202,167.398 487.152,166.616 469.376,157.085 
						456.758,162.456 					"/>
					<polygon fill="#FFFFFF" stroke="#CCCCCC" stroke-width="0.7" points="240.892,161.49 225.841,151.581 220.575,154.805 
						235.626,165.366 					"/>
					<polygon fill="#FFFFFF" stroke="#CCCCCC" stroke-width="0.7" points="235.626,165.366 220.575,154.805 214.657,158.53 
						229.708,169.512 					"/>
					<polygon fill="#FFFFFF" stroke="#CCCCCC" stroke-width="0.7" points="229.708,169.512 214.657,158.53 207.795,162.839 
						222.847,174.043 					"/>
					<polygon fill="#FFFFFF" stroke="#CCCCCC" stroke-width="0.7" points="463.901,174.292 480.802,180.179 487.152,166.616 
						468.202,167.398 					"/>
					<polygon fill="#FFFFFF" stroke="#CCCCCC" stroke-width="0.7" points="222.847,174.043 207.795,162.839 199.803,167.732 
						214.854,179.033 					"/>
					<polygon fill="#FFFFFF" stroke="#CCCCCC" stroke-width="0.7" points="214.854,179.033 199.803,167.732 190.609,173.166 
						205.659,184.5 					"/>
					<polygon fill="#FFFFFF" stroke="#CCCCCC" stroke-width="0.7" points="205.659,184.5 190.609,173.166 180.264,179.066 
						195.316,190.416 					"/>
					<polygon fill="#FFFFFF" stroke="#CCCCCC" stroke-width="0.7" points="445.263,182.971 460.314,190.328 480.802,180.179 
						463.901,174.292 					"/>
					<polygon fill="#FFFFFF" stroke="#CCCCCC" stroke-width="0.7" points="195.316,190.416 180.264,179.066 166.705,186.925 
						183.916,196.738 					"/>
					<polygon fill="#FFFFFF" stroke="#CCCCCC" stroke-width="0.7" points="240.969,242.968 228.34,250.911 231.356,253.563 
						243.986,245.618 					"/>
					<polygon fill="#FFFFFF" stroke="#CCCCCC" stroke-width="0.7" points="252.285,251.267 239.656,259.852 243.705,263.079 
						256.335,254.122 					"/>
					<polygon fill="#FFFFFF" stroke="#CCCCCC" stroke-width="0.7" points="243.986,245.618 231.356,253.563 235.834,256.53 
						248.463,248.474 					"/>
					<polygon fill="#FFFFFF" stroke="#CCCCCC" stroke-width="0.7" points="256.335,254.122 243.705,263.079 248.052,266.479 
						260.682,257.063 					"/>
					<polygon fill="#FFFFFF" stroke="#CCCCCC" stroke-width="0.7" points="248.463,248.474 235.834,256.53 239.656,259.852 
						252.285,251.267 					"/>
					<polygon fill="#FFFFFF" stroke="#CCCCCC" stroke-width="0.7" points="260.682,257.063 248.052,266.479 252.875,270.116 
						265.504,260.145 					"/>
					<polygon fill="#FFFFFF" stroke="#CCCCCC" stroke-width="0.7" points="237.475,240.267 224.845,247.856 228.34,250.911 
						240.969,242.968 					"/>
					<polygon fill="#FFFFFF" stroke="#CCCCCC" stroke-width="0.7" points="183.916,196.738 166.705,186.925 168.783,203.221 
						185.291,199.999 					"/>
					<polygon fill="#FFFFFF" stroke="#CCCCCC" stroke-width="0.7" points="233.958,237.571 221.329,244.994 224.845,247.856 
						237.475,240.267 					"/>
					<polygon fill="#FFFFFF" stroke="#CCCCCC" stroke-width="0.7" points="265.504,260.145 252.875,270.116 258.602,274.161 
						271.231,263.49 					"/>
					<polygon fill="#FFFFFF" stroke="#CCCCCC" stroke-width="0.7" points="230.474,234.886 217.845,242.186 221.329,244.994 
						233.958,237.571 					"/>
					<polygon fill="#FFFFFF" stroke="#CCCCCC" stroke-width="0.7" points="227.013,232.208 214.383,239.41 217.845,242.186 
						230.474,234.886 					"/>
					<polygon fill="#FFFFFF" stroke="#CCCCCC" stroke-width="0.7" points="223.568,229.533 210.938,236.658 214.383,239.41 
						227.013,232.208 					"/>
					<polygon fill="#FFFFFF" stroke="#CCCCCC" stroke-width="0.7" points="220.129,226.861 207.499,233.926 210.938,236.658 
						223.568,229.533 					"/>
					<polygon fill="#FFFFFF" stroke="#CCCCCC" stroke-width="0.7" points="430.327,190.559 445.378,198.591 460.314,190.328 
						445.263,182.971 					"/>
					<polygon fill="#FFFFFF" stroke="#CCCCCC" stroke-width="0.7" points="216.694,224.19 204.065,231.208 207.499,233.926 
						220.129,226.861 					"/>
					<polygon fill="#FFFFFF" stroke="#CCCCCC" stroke-width="0.7" points="213.256,221.519 200.626,228.5 204.065,231.208 
						216.694,224.19 					"/>
					<polygon fill="#FFFFFF" stroke="#CCCCCC" stroke-width="0.7" points="209.811,218.845 197.182,225.8 200.626,228.5 
						213.256,221.519 					"/>
					<polygon fill="#FFFFFF" stroke="#CCCCCC" stroke-width="0.7" points="206.357,216.168 193.727,223.104 197.182,225.8 
						209.811,218.845 					"/>
					<polygon fill="#FFFFFF" stroke="#CCCCCC" stroke-width="0.7" points="202.889,213.488 190.259,220.409 193.727,223.104 
						206.357,216.168 					"/>
					<polygon fill="#FFFFFF" stroke="#CCCCCC" stroke-width="0.7" points="271.231,263.49 258.602,274.161 266.864,278.949 
						279.492,267.56 					"/>
					<polygon fill="#FFFFFF" stroke="#CCCCCC" stroke-width="0.7" points="199.406,210.802 186.777,217.713 190.259,220.409 
						202.889,213.488 					"/>
					<polygon fill="#FFFFFF" stroke="#CCCCCC" stroke-width="0.7" points="195.905,208.112 183.276,215.015 186.777,217.713 
						199.406,210.802 					"/>
					<polygon fill="#FFFFFF" stroke="#CCCCCC" stroke-width="0.7" points="192.383,205.416 179.762,212.318 183.276,215.015 
						195.905,208.112 					"/>
					<polygon fill="#FFFFFF" stroke="#CCCCCC" stroke-width="0.7" points="185.291,199.999 168.783,203.221 176.173,209.578 
						188.836,202.713 					"/>
					<polygon fill="#FFFFFF" stroke="#CCCCCC" stroke-width="0.7" points="188.836,202.713 176.173,209.578 179.762,212.318 
						192.383,205.416 					"/>
					<polygon fill="#FFFFFF" stroke="#CCCCCC" stroke-width="0.7" points="279.492,267.56 266.864,278.949 283.129,283.904 
						295.758,272.413 					"/>
					<polygon fill="#FFFFFF" stroke="#CCCCCC" stroke-width="0.7" points="420.446,196.292 435.496,204.893 445.378,198.591 
						430.327,190.559 					"/>
					<polygon fill="#FFFFFF" stroke="#CCCCCC" stroke-width="0.7" points="413.727,200.764 428.778,209.621 435.496,204.893 
						420.446,196.292 					"/>
					<polygon fill="#FFFFFF" stroke="#CCCCCC" stroke-width="0.7" points="295.758,272.413 283.129,283.904 291.147,284.351 
						303.776,273.354 					"/>
					<polygon fill="#FFFFFF" stroke="#CCCCCC" stroke-width="0.7" points="408.692,204.544 423.742,213.349 428.778,209.621 
						413.727,200.764 					"/>
					<polygon fill="#FFFFFF" stroke="#CCCCCC" stroke-width="0.7" points="404.615,207.923 419.667,216.43 423.742,213.349 
						408.692,204.544 					"/>
					<polygon fill="#FFFFFF" stroke="#CCCCCC" stroke-width="0.7" points="401.129,211.053 416.181,219.074 419.667,216.43 
						404.615,207.923 					"/>
					<polygon fill="#FFFFFF" stroke="#CCCCCC" stroke-width="0.7" points="398.021,214.024 413.073,221.421 416.181,219.074 
						401.129,211.053 					"/>
					<polygon fill="#FFFFFF" stroke="#CCCCCC" stroke-width="0.7" points="395.157,216.89 410.208,223.562 413.073,221.421 
						398.021,214.024 					"/>
					<polygon fill="#FFFFFF" stroke="#CCCCCC" stroke-width="0.7" points="392.447,219.69 407.498,225.569 410.208,223.562 
						395.157,216.89 					"/>
					<polygon fill="#FFFFFF" stroke="#CCCCCC" stroke-width="0.7" points="303.776,273.354 291.147,284.351 297.115,283.979 
						309.744,273.619 					"/>
					<polygon fill="#FFFFFF" stroke="#CCCCCC" stroke-width="0.7" points="389.821,222.455 404.871,227.511 407.498,225.569 
						392.447,219.69 					"/>
					<polygon fill="#FFFFFF" stroke="#CCCCCC" stroke-width="0.7" points="387.218,225.209 402.27,229.444 404.871,227.511 
						389.821,222.455 					"/>
					<polygon fill="#FFFFFF" stroke="#CCCCCC" stroke-width="0.7" points="384.589,227.976 399.64,231.416 402.27,229.444 
						387.218,225.209 					"/>
					<polygon fill="#FFFFFF" stroke="#CCCCCC" stroke-width="0.7" points="381.881,230.775 396.932,233.481 399.64,231.416 
						384.589,227.976 					"/>
					<polygon fill="#FFFFFF" stroke="#CCCCCC" stroke-width="0.7" points="379.034,233.634 394.086,235.694 396.932,233.481 
						381.881,230.775 					"/>
					<polygon fill="#FFFFFF" stroke="#CCCCCC" stroke-width="0.7" points="375.985,236.579 391.036,238.104 394.086,235.694 
						379.034,233.634 					"/>
					<polygon fill="#FFFFFF" stroke="#CCCCCC" stroke-width="0.7" points="372.656,239.643 387.707,240.764 391.036,238.104 
						375.985,236.579 					"/>
					<polygon fill="#FFFFFF" stroke="#CCCCCC" stroke-width="0.7" points="368.957,242.862 384.008,243.719 387.707,240.764 
						372.656,239.643 					"/>
					<polygon fill="#FFFFFF" stroke="#CCCCCC" stroke-width="0.7" points="309.744,273.619 297.115,283.979 302.378,283.433 
						315.007,273.653 					"/>
					<polygon fill="#FFFFFF" stroke="#CCCCCC" stroke-width="0.7" points="364.792,246.279 379.843,247.006 384.008,243.719 
						368.957,242.862 					"/>
					<polygon fill="#FFFFFF" stroke="#CCCCCC" stroke-width="0.7" points="360.086,249.921 375.137,250.626 379.843,247.006 
						364.792,246.279 					"/>
					<polygon fill="#FFFFFF" stroke="#CCCCCC" stroke-width="0.7" points="354.819,253.798 369.87,254.531 375.137,250.626 
						360.086,249.921 					"/>
					<polygon fill="#FFFFFF" stroke="#CCCCCC" stroke-width="0.7" points="315.007,273.653 302.378,283.433 307.34,282.843 
						319.969,273.59 					"/>
					<polygon fill="#FFFFFF" stroke="#CCCCCC" stroke-width="0.7" points="349.073,257.873 364.124,258.618 369.87,254.531 
						354.819,253.798 					"/>
					<polygon fill="#FFFFFF" stroke="#CCCCCC" stroke-width="0.7" points="343.018,262.075 358.072,262.744 364.124,258.618 
						349.073,257.873 					"/>
					<polygon fill="#FFFFFF" stroke="#CCCCCC" stroke-width="0.7" points="336.831,266.333 351.867,266.798 358.072,262.744 
						343.018,262.075 					"/>
					<polygon fill="#FFFFFF" stroke="#CCCCCC" stroke-width="0.7" points="319.969,273.59 307.34,282.843 324.073,280.488 
						324.825,273.493 					"/>
					<polygon fill="#FFFFFF" stroke="#CCCCCC" stroke-width="0.7" points="330.619,270.584 343.912,271.851 351.867,266.798 
						336.831,266.333 					"/>
					<polygon fill="#FFFFFF" stroke="#CCCCCC" stroke-width="0.7" points="324.825,273.493 324.073,280.488 343.912,271.851 
						330.619,270.584 					"/>
				</g>
			</g>
			<g>
				<defs>
					<rect id="SVGID_57_" x="77.386" y="28.792" width="461.343" height="312.872"/>
				</defs>
				<clipPath id="SVGID_58_">
					<use xlink:href="#SVGID_57_"  overflow="visible"/>
				</clipPath>
				<g id="ID000034" clip-path="url(#SVGID_58_)">
					<polygon fill="#FFFFFF" stroke="#CCCCCC" stroke-width="0.7" points="270.962,72.942 258.332,78.077 254.198,75.262 
						266.827,70.064 					"/>
					<polygon fill="#FFFFFF" stroke="#CCCCCC" stroke-width="0.7" points="275.136,75.833 262.507,80.899 258.332,78.077 
						270.962,72.942 					"/>
					<polygon fill="#FFFFFF" stroke="#CCCCCC" stroke-width="0.7" points="279.356,78.736 266.726,83.725 262.507,80.899 
						275.136,75.833 					"/>
					<polygon fill="#FFFFFF" stroke="#CCCCCC" stroke-width="0.7" points="283.626,81.655 270.997,86.555 266.726,83.725 
						279.356,78.736 					"/>
					<polygon fill="#FFFFFF" stroke="#CCCCCC" stroke-width="0.7" points="287.954,84.591 275.324,89.39 270.997,86.555 
						283.626,81.655 					"/>
					<polygon fill="#FFFFFF" stroke="#CCCCCC" stroke-width="0.7" points="292.35,87.547 279.72,92.229 275.324,89.39 
						287.954,84.591 					"/>
					<polygon fill="#FFFFFF" stroke="#CCCCCC" stroke-width="0.7" points="296.823,90.525 284.194,95.076 279.72,92.229 
						292.35,87.547 					"/>
					<polygon fill="#FFFFFF" stroke="#CCCCCC" stroke-width="0.7" points="301.388,93.531 288.759,97.929 284.194,95.076 
						296.823,90.525 					"/>
					<polygon fill="#FFFFFF" stroke="#CCCCCC" stroke-width="0.7" points="306.065,96.57 293.436,100.793 288.759,97.929 
						301.388,93.531 					"/>
					<polygon fill="#FFFFFF" stroke="#CCCCCC" stroke-width="0.7" points="310.882,99.649 298.253,103.671 293.436,100.793 
						306.065,96.57 					"/>
					<polygon fill="#FFFFFF" stroke="#CCCCCC" stroke-width="0.7" points="315.88,102.783 303.251,106.572 298.253,103.671 
						310.882,99.649 					"/>
					<polygon fill="#FFFFFF" stroke="#CCCCCC" stroke-width="0.7" points="321.124,105.988 308.494,109.514 303.251,106.572 
						315.88,102.783 					"/>
					<polygon fill="#FFFFFF" stroke="#CCCCCC" stroke-width="0.7" points="326.727,109.297 314.097,112.53 308.494,109.514 
						321.124,105.988 					"/>
					<polygon fill="#FFFFFF" stroke="#CCCCCC" stroke-width="0.7" points="332.902,112.773 320.272,115.706 314.097,112.53 
						326.727,109.297 					"/>
					<polygon fill="#FFFFFF" stroke="#CCCCCC" stroke-width="0.7" points="340.127,116.551 327.498,119.274 320.272,115.706 
						332.902,112.773 					"/>
					<polygon fill="#FFFFFF" stroke="#CCCCCC" stroke-width="0.7" points="349.705,120.99 337.075,123.888 327.498,119.274 
						340.127,116.551 					"/>
					<polygon fill="#FFFFFF" stroke="#CCCCCC" stroke-width="0.7" points="364.743,126.866 352.115,130.35 337.075,123.888 
						349.705,120.99 					"/>
					<polygon fill="#FFFFFF" stroke="#CCCCCC" stroke-width="0.7" points="384.203,133.779 371.574,137.831 352.115,130.35 
						364.743,126.866 					"/>
					<polygon fill="#FFFFFF" stroke="#CCCCCC" stroke-width="0.7" points="402.626,140.469 389.997,144.878 371.574,137.831 
						384.203,133.779 					"/>
					<polygon fill="#FFFFFF" stroke="#CCCCCC" stroke-width="0.7" points="296.772,136.277 285.715,143.067 293.014,142.103 
						285.542,133.057 					"/>
					<polygon fill="#FFFFFF" stroke="#CCCCCC" stroke-width="0.7" points="285.542,133.057 293.014,142.103 287.544,147.019 
						272.499,139.965 					"/>
					<polygon fill="#FFFFFF" stroke="#CCCCCC" stroke-width="0.7" points="310.084,141.722 297.454,147.743 285.715,143.067 
						296.772,136.277 					"/>
					<polygon fill="#FFFFFF" stroke="#CCCCCC" stroke-width="0.7" points="418.57,146.579 405.94,151.225 389.997,144.878 
						402.626,140.469 					"/>
					<polygon fill="#FFFFFF" stroke="#CCCCCC" stroke-width="0.7" points="272.499,139.965 287.544,147.019 278.54,152.619 
						263.49,145.357 					"/>
					<polygon fill="#FFFFFF" stroke="#CCCCCC" stroke-width="0.7" points="432.455,152.175 419.825,157.053 405.94,151.225 
						418.57,146.579 					"/>
					<polygon fill="#FFFFFF" stroke="#CCCCCC" stroke-width="0.7" points="328.066,148.303 315.436,154.148 297.454,147.743 
						310.084,141.722 					"/>
					<polygon fill="#FFFFFF" stroke="#CCCCCC" stroke-width="0.7" points="263.49,145.357 278.54,152.619 271.668,157.559 
						256.617,149.893 					"/>
					<polygon fill="#FFFFFF" stroke="#CCCCCC" stroke-width="0.7" points="256.617,149.893 271.668,157.559 265.995,162.237 
						250.945,153.938 					"/>
					<polygon fill="#FFFFFF" stroke="#CCCCCC" stroke-width="0.7" points="444.992,157.417 432.364,162.542 419.825,157.053 
						432.455,152.175 					"/>
					<polygon fill="#FFFFFF" stroke="#CCCCCC" stroke-width="0.7" points="250.945,153.938 265.995,162.237 260.916,166.835 
						245.865,157.736 					"/>
					<polygon fill="#FFFFFF" stroke="#CCCCCC" stroke-width="0.7" points="245.865,157.736 260.916,166.835 255.944,171.399 
						240.892,161.49 					"/>
					<polygon fill="#FFFFFF" stroke="#CCCCCC" stroke-width="0.7" points="240.892,161.49 255.944,171.399 250.677,175.928 
						235.626,165.366 					"/>
					<polygon fill="#FFFFFF" stroke="#CCCCCC" stroke-width="0.7" points="456.758,162.456 444.141,167.827 432.364,162.542 
						444.992,157.417 					"/>
					<polygon fill="#FFFFFF" stroke="#CCCCCC" stroke-width="0.7" points="350.155,155.651 337.525,161.329 315.436,154.148 
						328.066,148.303 					"/>
					<polygon fill="#FFFFFF" stroke="#CCCCCC" stroke-width="0.7" points="235.626,165.366 250.677,175.928 244.759,180.492 
						229.708,169.512 					"/>
					<polygon fill="#FFFFFF" stroke="#CCCCCC" stroke-width="0.7" points="468.202,167.398 449.254,168.18 444.141,167.827 
						456.758,162.456 					"/>
					<polygon fill="#FFFFFF" stroke="#CCCCCC" stroke-width="0.7" points="229.708,169.512 244.759,180.492 237.898,185.248 
						222.847,174.043 					"/>
					<polygon fill="#FFFFFF" stroke="#CCCCCC" stroke-width="0.7" points="463.901,174.292 446.999,168.407 449.254,168.18 
						468.202,167.398 					"/>
					<polygon fill="#FFFFFF" stroke="#CCCCCC" stroke-width="0.7" points="222.847,174.043 237.898,185.248 229.905,190.333 
						214.854,179.033 					"/>
					<polygon fill="#FFFFFF" stroke="#CCCCCC" stroke-width="0.7" points="214.854,179.033 229.905,190.333 220.711,195.833 
						205.659,184.5 					"/>
					<polygon fill="#FFFFFF" stroke="#CCCCCC" stroke-width="0.7" points="445.263,182.971 430.212,175.615 446.999,168.407 
						463.901,174.292 					"/>
					<polygon fill="#FFFFFF" stroke="#CCCCCC" stroke-width="0.7" points="205.659,184.5 220.711,195.833 210.367,201.765 
						195.316,190.416 					"/>
					<polygon fill="#FFFFFF" stroke="#CCCCCC" stroke-width="0.7" points="240.969,242.968 253.599,235.025 256.615,237.673 
						243.986,245.618 					"/>
					<polygon fill="#FFFFFF" stroke="#CCCCCC" stroke-width="0.7" points="243.986,245.618 256.615,237.673 261.092,240.418 
						248.463,248.474 					"/>
					<polygon fill="#FFFFFF" stroke="#CCCCCC" stroke-width="0.7" points="233.958,237.571 246.588,230.148 250.105,232.678 
						237.475,240.267 					"/>
					<polygon fill="#FFFFFF" stroke="#CCCCCC" stroke-width="0.7" points="230.474,234.886 243.104,227.585 246.588,230.148 
						233.958,237.571 					"/>
					<polygon fill="#FFFFFF" stroke="#CCCCCC" stroke-width="0.7" points="227.013,232.208 239.643,225.005 243.104,227.585 
						230.474,234.886 					"/>
					<polygon fill="#FFFFFF" stroke="#CCCCCC" stroke-width="0.7" points="237.475,240.267 250.105,232.678 253.599,235.025 
						240.969,242.968 					"/>
					<polygon fill="#FFFFFF" stroke="#CCCCCC" stroke-width="0.7" points="223.568,229.533 236.197,222.409 239.643,225.005 
						227.013,232.208 					"/>
					<polygon fill="#FFFFFF" stroke="#CCCCCC" stroke-width="0.7" points="195.316,190.416 210.367,201.765 201.126,206.551 
						183.916,196.738 					"/>
					<polygon fill="#FFFFFF" stroke="#CCCCCC" stroke-width="0.7" points="220.129,226.861 232.759,219.797 236.197,222.409 
						223.568,229.533 					"/>
					<polygon fill="#FFFFFF" stroke="#CCCCCC" stroke-width="0.7" points="216.694,224.19 229.323,217.173 232.759,219.797 
						220.129,226.861 					"/>
					<polygon fill="#FFFFFF" stroke="#CCCCCC" stroke-width="0.7" points="213.256,221.519 225.885,214.537 229.323,217.173 
						216.694,224.19 					"/>
					<polygon fill="#FFFFFF" stroke="#CCCCCC" stroke-width="0.7" points="248.463,248.474 261.092,240.418 264.914,242.682 
						252.285,251.267 					"/>
					<polygon fill="#FFFFFF" stroke="#CCCCCC" stroke-width="0.7" points="209.811,218.845 222.441,211.89 225.885,214.537 
						213.256,221.519 					"/>
					<polygon fill="#FFFFFF" stroke="#CCCCCC" stroke-width="0.7" points="206.357,216.168 218.987,209.232 222.441,211.89 
						209.811,218.845 					"/>
					<polygon fill="#FFFFFF" stroke="#CCCCCC" stroke-width="0.7" points="202.889,213.488 215.519,206.566 218.987,209.232 
						206.357,216.168 					"/>
					<polygon fill="#FFFFFF" stroke="#CCCCCC" stroke-width="0.7" points="199.406,210.802 212.035,203.892 215.519,206.566 
						202.889,213.488 					"/>
					<polygon fill="#FFFFFF" stroke="#CCCCCC" stroke-width="0.7" points="252.285,251.267 264.914,242.682 268.964,245.165 
						256.335,254.122 					"/>
					<polygon fill="#FFFFFF" stroke="#CCCCCC" stroke-width="0.7" points="195.905,208.112 208.533,201.209 212.035,203.892 
						199.406,210.802 					"/>
					<polygon fill="#FFFFFF" stroke="#CCCCCC" stroke-width="0.7" points="192.383,205.416 205.003,198.513 208.533,201.209 
						195.905,208.112 					"/>
					<polygon fill="#FFFFFF" stroke="#CCCCCC" stroke-width="0.7" points="188.836,202.713 201.497,195.848 205.003,198.513 
						192.383,205.416 					"/>
					<polygon fill="#FFFFFF" stroke="#CCCCCC" stroke-width="0.7" points="185.291,199.999 201.798,196.775 201.497,195.848 
						188.836,202.713 					"/>
					<polygon fill="#FFFFFF" stroke="#CCCCCC" stroke-width="0.7" points="256.335,254.122 268.964,245.165 273.311,247.647 
						260.682,257.063 					"/>
					<polygon fill="#FFFFFF" stroke="#CCCCCC" stroke-width="0.7" points="260.682,257.063 273.311,247.647 278.134,250.173 
						265.504,260.145 					"/>
					<polygon fill="#FFFFFF" stroke="#CCCCCC" stroke-width="0.7" points="183.916,196.738 201.126,206.551 201.798,196.775 
						185.291,199.999 					"/>
					<polygon fill="#FFFFFF" stroke="#CCCCCC" stroke-width="0.7" points="265.504,260.145 278.134,250.173 283.861,252.819 
						271.231,263.49 					"/>
					<polygon fill="#FFFFFF" stroke="#CCCCCC" stroke-width="0.7" points="430.327,190.559 415.276,182.526 430.212,175.615 
						445.263,182.971 					"/>
					<polygon fill="#FFFFFF" stroke="#CCCCCC" stroke-width="0.7" points="271.231,263.49 283.861,252.819 292.122,256.169 
						279.492,267.56 					"/>
					<polygon fill="#FFFFFF" stroke="#CCCCCC" stroke-width="0.7" points="279.492,267.56 292.122,256.169 308.388,260.921 
						295.758,272.413 					"/>
					<polygon fill="#FFFFFF" stroke="#CCCCCC" stroke-width="0.7" points="420.446,196.292 405.395,187.69 415.276,182.526 
						430.327,190.559 					"/>
					<polygon fill="#FFFFFF" stroke="#CCCCCC" stroke-width="0.7" points="413.727,200.764 398.676,191.908 405.395,187.69 
						420.446,196.292 					"/>
					<polygon fill="#FFFFFF" stroke="#CCCCCC" stroke-width="0.7" points="375.985,236.579 360.934,235.053 363.984,231.574 
						379.034,233.634 					"/>
					<polygon fill="#FFFFFF" stroke="#CCCCCC" stroke-width="0.7" points="379.034,233.634 363.984,231.574 366.83,228.069 
						381.881,230.775 					"/>
					<polygon fill="#FFFFFF" stroke="#CCCCCC" stroke-width="0.7" points="295.758,272.413 308.388,260.921 316.405,262.358 
						303.776,273.354 					"/>
					<polygon fill="#FFFFFF" stroke="#CCCCCC" stroke-width="0.7" points="372.656,239.643 357.605,238.521 360.934,235.053 
						375.985,236.579 					"/>
					<polygon fill="#FFFFFF" stroke="#CCCCCC" stroke-width="0.7" points="408.692,204.544 393.641,195.741 398.676,191.908 
						413.727,200.764 					"/>
					<polygon fill="#FFFFFF" stroke="#CCCCCC" stroke-width="0.7" points="381.881,230.775 366.83,228.069 369.538,224.535 
						384.589,227.976 					"/>
					<polygon fill="#FFFFFF" stroke="#CCCCCC" stroke-width="0.7" points="368.957,242.862 353.906,242.005 357.605,238.521 
						372.656,239.643 					"/>
					<polygon fill="#FFFFFF" stroke="#CCCCCC" stroke-width="0.7" points="384.589,227.976 369.538,224.535 372.166,220.975 
						387.218,225.209 					"/>
					<polygon fill="#FFFFFF" stroke="#CCCCCC" stroke-width="0.7" points="387.218,225.209 372.166,220.975 374.769,217.398 
						389.821,222.455 					"/>
					<polygon fill="#FFFFFF" stroke="#CCCCCC" stroke-width="0.7" points="364.792,246.279 349.741,245.551 353.906,242.005 
						368.957,242.862 					"/>
					<polygon fill="#FFFFFF" stroke="#CCCCCC" stroke-width="0.7" points="404.615,207.923 389.565,199.417 393.641,195.741 
						408.692,204.544 					"/>
					<polygon fill="#FFFFFF" stroke="#CCCCCC" stroke-width="0.7" points="389.821,222.455 374.769,217.398 377.396,213.811 
						392.447,219.69 					"/>
					<polygon fill="#FFFFFF" stroke="#CCCCCC" stroke-width="0.7" points="392.447,219.69 377.396,213.811 380.106,210.218 
						395.157,216.89 					"/>
					<polygon fill="#FFFFFF" stroke="#CCCCCC" stroke-width="0.7" points="401.129,211.053 386.078,203.032 389.565,199.417 
						404.615,207.923 					"/>
					<polygon fill="#FFFFFF" stroke="#CCCCCC" stroke-width="0.7" points="395.157,216.89 380.106,210.218 382.969,206.626 
						398.021,214.024 					"/>
					<polygon fill="#FFFFFF" stroke="#CCCCCC" stroke-width="0.7" points="398.021,214.024 382.969,206.626 386.078,203.032 
						401.129,211.053 					"/>
					<polygon fill="#FFFFFF" stroke="#CCCCCC" stroke-width="0.7" points="360.086,249.921 345.035,249.218 349.741,245.551 
						364.792,246.279 					"/>
					<polygon fill="#FFFFFF" stroke="#CCCCCC" stroke-width="0.7" points="354.819,253.798 339.768,253.065 345.035,249.218 
						360.086,249.921 					"/>
					<polygon fill="#FFFFFF" stroke="#CCCCCC" stroke-width="0.7" points="303.776,273.354 316.405,262.358 322.373,263.259 
						309.744,273.619 					"/>
					<polygon fill="#FFFFFF" stroke="#CCCCCC" stroke-width="0.7" points="349.073,257.873 334.022,257.127 339.768,253.065 
						354.819,253.798 					"/>
					<polygon fill="#FFFFFF" stroke="#CCCCCC" stroke-width="0.7" points="343.018,262.075 327.964,261.405 334.022,257.127 
						349.073,257.873 					"/>
					<polygon fill="#FFFFFF" stroke="#CCCCCC" stroke-width="0.7" points="309.744,273.619 322.373,263.259 327.637,263.874 
						315.007,273.653 					"/>
					<polygon fill="#FFFFFF" stroke="#CCCCCC" stroke-width="0.7" points="336.831,266.333 321.794,265.867 327.964,261.405 
						343.018,262.075 					"/>
					<polygon fill="#FFFFFF" stroke="#CCCCCC" stroke-width="0.7" points="315.007,273.653 327.637,263.874 332.598,264.337 
						319.969,273.59 					"/>
					<polygon fill="#FFFFFF" stroke="#CCCCCC" stroke-width="0.7" points="330.619,270.584 317.327,269.317 321.794,265.867 
						336.831,266.333 					"/>
					<polygon fill="#FFFFFF" stroke="#CCCCCC" stroke-width="0.7" points="324.825,273.493 325.578,266.498 317.327,269.317 
						330.619,270.584 					"/>
					<polygon fill="#FFFFFF" stroke="#CCCCCC" stroke-width="0.7" points="319.969,273.59 332.598,264.337 325.578,266.498 
						324.825,273.493 					"/>
				</g>
			</g>
		</g>
		<g>
			<line fill="none" stroke="#000000" x1="328.239" y1="341.664" x2="334.51" y2="343.597"/>
			<line fill="none" stroke="#000000" x1="380.861" y1="318.624" x2="387.132" y2="320.557"/>
			<line fill="none" stroke="#000000" x1="433.484" y1="295.583" x2="439.755" y2="297.517"/>
			<line fill="none" stroke="#000000" x1="486.106" y1="272.543" x2="492.377" y2="274.476"/>
			<line fill="none" stroke="#000000" x1="538.729" y1="249.502" x2="545" y2="251.436"/>
			<line fill="none" stroke="#000000" x1="328.239" y1="341.664" x2="538.729" y2="249.502"/>
			<g transform="translate(602.527,629.804)">
				<g transform="rotate(-0.0)">
					<text transform="matrix(1 0 0 1 -265.7689 -273.595)" font-family="'Helvetica'" font-size="9.0494">-1</text>
				</g>
			</g>
			<g transform="translate(695.567,589.067)">
				<g transform="rotate(-0.0)">
					<text transform="matrix(1 0 0 1 -309.9603 -255.899)" font-family="'Helvetica'" font-size="9.0494">-0.5</text>
				</g>
			</g>
			<g transform="translate(788.608,548.330)">
				<g transform="rotate(-0.0)">
					<text transform="matrix(1 0 0 1 -345.098 -238.2021)" font-family="'Helvetica'" font-size="9.0494">0</text>
				</g>
			</g>
			<g transform="translate(881.648,507.593)">
				<g transform="rotate(-0.0)">
					<text transform="matrix(1 0 0 1 -389.2903 -220.5051)" font-family="'Helvetica'" font-size="9.0494">0.5</text>
				</g>
			</g>
			<g transform="translate(974.689,466.856)">
				<g transform="rotate(-0.0)">
					<text transform="matrix(1 0 0 1 -425.9349 -202.8081)" font-family="'Helvetica'" font-size="9.0494">1</text>
				</g>
			</g>
			<line fill="none" stroke="#000000" x1="328.239" y1="341.664" x2="322.976" y2="343.968"/>
			<line fill="none" stroke="#000000" x1="265.526" y1="322.331" x2="260.263" y2="324.635"/>
			<line fill="none" stroke="#000000" x1="202.813" y1="302.998" x2="197.55" y2="305.302"/>
			<line fill="none" stroke="#000000" x1="140.1" y1="283.665" x2="134.837" y2="285.969"/>
			<line fill="none" stroke="#000000" x1="77.386" y1="264.331" x2="72.124" y2="266.635"/>
			<line fill="none" stroke="#000000" x1="328.239" y1="341.664" x2="77.386" y2="264.331"/>
			<g transform="translate(561.742,631.115)">
				<g transform="rotate(-0.0)">
					<text transform="matrix(1 0 0 1 -248.0513 -274.1648)" font-family="'Helvetica'" font-size="9.0494">-1</text>
				</g>
			</g>
			<g transform="translate(450.861,596.932)">
				<g transform="rotate(-0.0)">
					<text transform="matrix(1 0 0 1 -203.6566 -259.3148)" font-family="'Helvetica'" font-size="9.0494">-0.5</text>
				</g>
			</g>
			<g transform="translate(339.980,562.750)">
				<g transform="rotate(-0.0)">
					<text transform="matrix(1 0 0 1 -150.2083 -244.4658)" font-family="'Helvetica'" font-size="9.0494">0</text>
				</g>
			</g>
			<g transform="translate(229.098,528.567)">
				<g transform="rotate(-0.0)">
					<text transform="matrix(1 0 0 1 -105.8136 -229.6163)" font-family="'Helvetica'" font-size="9.0494">0.5</text>
				</g>
			</g>
			<g transform="translate(118.217,494.385)">
				<g transform="rotate(-0.0)">
					<text transform="matrix(1 0 0 1 -53.872 -214.7673)" font-family="'Helvetica'" font-size="9.0494">1</text>
				</g>
			</g>
			<line fill="none" stroke="#000000" x1="77.386" y1="259.986" x2="71.115" y2="258.053"/>
			<line fill="none" stroke="#000000" x1="77.386" y1="225.229" x2="71.115" y2="223.295"/>
			<line fill="none" stroke="#000000" x1="77.386" y1="190.47" x2="71.115" y2="188.537"/>
			<line fill="none" stroke="#000000" x1="77.386" y1="155.712" x2="71.115" y2="153.778"/>
			<line fill="none" stroke="#000000" x1="77.386" y1="120.954" x2="71.115" y2="119.02"/>
			<line fill="none" stroke="#000000" x1="77.386" y1="264.331" x2="77.386" y2="120.954"/>
			<g transform="translate(114.649,460.039)">
				<g transform="rotate(-0.0)">
					<text transform="matrix(1 0 0 1 -57.8519 -199.8471)" font-family="'Helvetica'" font-size="9.0494">-8</text>
				</g>
			</g>
			<g transform="translate(114.649,398.584)">
				<g transform="rotate(-0.0)">
					<text transform="matrix(1 0 0 1 -57.8519 -173.1504)" font-family="'Helvetica'" font-size="9.0494">-4</text>
				</g>
			</g>
			<g transform="translate(114.649,337.129)">
				<g transform="rotate(-0.0)">
					<text transform="matrix(1 0 0 1 -54.8382 -146.4532)" font-family="'Helvetica'" font-size="9.0494">0</text>
				</g>
			</g>
			<g transform="translate(114.649,275.673)">
				<g transform="rotate(-0.0)">
					<text transform="matrix(1 0 0 1 -54.8382 -119.756)" font-family="'Helvetica'" font-size="9.0494">4</text>
				</g>
			</g>
			<g transform="translate(114.649,214.218)">
				<g transform="rotate(-0.0)">
					<text transform="matrix(1 0 0 1 -54.8382 -93.0588)" font-family="'Helvetica'" font-size="9.0494">8</text>
				</g>
			</g>
		</g>
	</g>
</g>
</svg>
